<?xml version="1.0" standalone="no"?><!DOCTYPE svg PUBLIC "-//W3C//DTD SVG 1.1//EN" "http://www.w3.org/Graphics/SVG/1.1/DTD/svg11.dtd"><svg t="1684077300347" class="icon" viewBox="0 0 1024 1024" version="1.1" xmlns="http://www.w3.org/2000/svg" p-id="1407" xmlns:xlink="http://www.w3.org/1999/xlink" width="200" height="200"><path d="M781.5 296.9H625.7v-77.1c0-43.4-35.2-78.7-78.7-78.7H205.9c-43.4 0-78.7 35.2-78.7 78.7v341.1c0 43.4 35.2 78.7 78.7 78.7H283v124.6c0 51.6 41.8 93.5 93.5 93.5h405.1c51.6 0 93.5-41.8 93.5-93.5V390.4c-0.2-51.6-42-93.5-93.6-93.5z m31.1 366l-51.3-51.3c-13.2-11.9-30.8-19.2-50-19.2-19.3 0-36.9 7.3-50.1 19.3L617.9 655l-0.1-0.1-41.1 41.2c-7.6 7.6-19.8 7.6-27.4 0-7.6-7.6-7.6-19.8 0-27.4l41.1-41.1-78.2-78.2c-13.2-11.9-30.8-19.3-50.1-19.3s-36.9 7.3-50.1 19.3l-66.8 66.8V390.4c0-17.2 13.9-31.2 31.2-31.2h405.1c17.2 0 31.2 13.9 31.2 31.2v272.5h-0.1z" fill="#211B1B" p-id="1408"></path></svg>