<?xml version="1.0" standalone="no"?><!DOCTYPE svg PUBLIC "-//W3C//DTD SVG 1.1//EN" "http://www.w3.org/Graphics/SVG/1.1/DTD/svg11.dtd"><svg t="1684077339347" class="icon" viewBox="0 0 1024 1024" version="1.1" xmlns="http://www.w3.org/2000/svg" p-id="2502" xmlns:xlink="http://www.w3.org/1999/xlink" width="200" height="200"><path d="M511.994112 1023.962624a521.312405 521.312405 0 0 1-52.351398-2.55997 495.200705 495.200705 0 0 1-99.890051-20.300567 510.43253 510.43253 0 0 1-134.014459-64.383259 514.554083 514.554083 0 0 1-138.23841-138.238411c-9.190294-13.593444-17.919794-27.80128-25.599706-42.213914s-15.155026-29.56766-21.580552-44.773885A515.270874 515.270874 0 0 1 10.495879 615.391323a511.661316 511.661316 0 0 1-7.679911-50.841015 518.394038 518.394038 0 0 1 0-104.702796 511.661316 511.661316 0 0 1 7.679911-50.841016c3.379161-16.48621 7.679912-32.998021 12.620655-49.074635s10.726277-31.718035 17.203002-47.026659 13.670243-30.258852 21.580552-44.773886 16.460611-28.620471 25.599706-42.213914a514.554083 514.554083 0 0 1 138.23841-138.23841c13.619043-9.190294 27.82688-17.919794 42.213915-25.599706s29.56766-15.129426 44.748285-21.554952A512.992501 512.992501 0 0 1 408.801699 10.700677a496.455091 496.455091 0 0 1 50.841015-7.679912 516.49966 516.49966 0 0 1 155.518212 7.679912c16.51181 3.379161 32.998021 7.679912 49.074635 12.620655s31.692436 10.726277 47.052259 17.203002 30.258852 13.670243 44.748286 21.554952 28.594871 16.460611 42.188314 25.599706a514.093288 514.093288 0 0 1 138.238411 138.23841c9.190294 13.593444 17.919794 27.80128 25.599705 42.213914s15.155026 29.56766 21.554952 44.773886 12.287859 31.154842 17.228602 47.026659 9.241494 32.562826 12.620655 49.074635a510.534929 510.534929 0 0 1 7.679912 50.841016 518.394038 518.394038 0 0 1 0 104.702796 510.534929 510.534929 0 0 1-7.679912 50.841015c-3.379161 16.48621-7.679912 32.998021-12.620655 49.074636s-10.726277 31.718035-17.228602 47.026659a510.637328 510.637328 0 0 1-47.154657 86.987799 514.093288 514.093288 0 0 1-138.238411 138.238411c-13.593444 9.190294-27.80128 17.919794-42.188314 25.599705s-29.56766 15.129426-44.748286 21.554952-31.180441 12.262259-47.052259 17.228602-32.562826 9.241494-49.074635 12.620655-33.791611 6.015931-50.815416 7.679912a521.312405 521.312405 0 0 1-52.351398 2.55997zM241.558822 562.681529a44.722686 44.722686 0 1 0 0 89.419772h435.194995l-28.338874 28.338874a44.645887 44.645887 0 1 0 63.154474 63.128874l104.574797-104.574797c0.281597-0.255997 0.511994-0.537594 0.742392-0.793591l0.742391-0.819191a3.046365 3.046365 0 0 0 0.332796-0.383995l0.332797-0.383996a4.633547 4.633547 0 0 0 0.435195-0.460795l0.435195-0.511994a6.553525 6.553525 0 0 0 0.767991-0.972789l0.255997-0.332796a1.587182 1.587182 0 0 1 0.281597-0.332796l0.409595-0.563194 0.486394-0.614392 0.204798-0.332797 0.204798-0.307196a4.070353 4.070353 0 0 1 0.383995-0.588793 2.687969 2.687969 0 0 0 0.383996-0.588794 1.894378 1.894378 0 0 1 0.435195-0.639992 3.609558 3.609558 0 0 1 0.332796-0.563194 4.428749 4.428749 0 0 0 0.332796-0.588793 2.175975 2.175975 0 0 1 0.460795-0.639993l0.153598-0.332796a3.763157 3.763157 0 0 0 0.358396-0.87039 1.638381 1.638381 0 0 1 0.358396-0.588793 3.635158 3.635158 0 0 0 0.383995-0.87039 0.409595 0.409595 0 0 0 0-0.153598 4.223951 4.223951 0 0 1 0.230398-0.486395 4.070353 4.070353 0 0 0 0.230397-0.486394l0.332796-0.998389 0.204798-0.537593c0-0.179198 0.153598-0.383996 0.204798-0.537594s0-0.307196 0.179197-0.435195l0.153599-0.409595a6.655923 6.655923 0 0 1 0.307196-0.793591l0.153598-0.409596a1.76638 1.76638 0 0 0 0-0.383995 1.843179 1.843179 0 0 1 0-0.383996l0.358396-1.305585a1.459183 1.459183 0 0 0 0-0.639992l0.153599-0.665593 0.153598-0.665592a1.254386 1.254386 0 0 1 0-0.307197 2.252774 2.252774 0 0 0 0-0.460794 6.06713 6.06713 0 0 0 0.230397-1.433584 2.073576 2.073576 0 0 1 0-0.409595 2.329573 2.329573 0 0 0 0-0.435195 4.633547 4.633547 0 0 0 0-1.305585 4.095953 4.095953 0 0 1 0-0.537594 3.916755 3.916755 0 0 0 0-0.537594 2.764768 2.764768 0 0 1 0-0.435195 4.070353 4.070353 0 0 0 0-0.614393v-1.075187-1.075188a15.359823 15.359823 0 0 0 0-2.175975 3.583959 3.583959 0 0 0 0-1.075188 4.019154 4.019154 0 0 0 0-1.075187 5.478337 5.478337 0 0 0 0-0.665593 5.759934 5.759934 0 0 1 0-0.639992 2.329573 2.329573 0 0 0 0-0.435195 2.099176 2.099176 0 0 1 0-0.435195v-0.691192a3.148764 3.148764 0 0 0 0-0.716792 1.228786 1.228786 0 0 0 0-0.307196 1.203186 1.203186 0 0 1 0-0.460795l-0.153598-0.665592-0.153598-0.665593a1.459183 1.459183 0 0 1 0-0.639992l-0.358396-1.305585a1.484783 1.484783 0 0 1 0-0.383996 1.76638 1.76638 0 0 0 0-0.383996 4.249551 4.249551 0 0 0-0.460795-1.177586l-0.153598-0.383996a4.147152 4.147152 0 0 0-0.179198-0.460794l-0.204798-0.537594c0-0.179198-0.153598-0.383996-0.204797-0.537594l-0.332797-0.972789a3.45596 3.45596 0 0 0-0.230397-0.486394 4.223951 4.223951 0 0 1-0.230397-0.486395l-0.204798-0.537593c0-0.179198-0.153598-0.383996-0.204798-0.537594v-0.153598a2.022377 2.022377 0 0 0-0.383995-0.588794 1.254386 1.254386 0 0 0 0-0.255997 3.635158 3.635158 0 0 1-0.383996-0.87039 2.559971 2.559971 0 0 0-0.460794-0.639992c0-0.230397-0.230397-0.409595-0.332797-0.588794l-0.307196-0.563193a2.355173 2.355173 0 0 0-0.460795-0.639993 3.711957 3.711957 0 0 0-0.358396-0.563193 3.50716 3.50716 0 0 1-0.383995-0.588794 1.894378 1.894378 0 0 0-0.230398-0.332796 1.74078 1.74078 0 0 1-0.204797-0.332796 5.299139 5.299139 0 0 0-0.563194-0.81919 2.406372 2.406372 0 0 1-0.281597-0.358396 1.971177 1.971177 0 0 1-0.281596-0.307197l-0.281597-0.332796-0.383996-0.486394-0.409595-0.511994a3.148764 3.148764 0 0 0-0.383996-0.435195 2.150375 2.150375 0 0 1-0.383995-0.435195 1.894378 1.894378 0 0 1-0.332796-0.383996l-0.307197-0.383996a9.267093 9.267093 0 0 1-0.767991-0.81919l-0.716792-0.793591-0.81919-0.767991-0.819191-0.767991-0.383995-0.307197-0.409596-0.332796a2.841567 2.841567 0 0 1-0.409595-0.383996l-0.435195-0.383995a6.707123 6.707123 0 0 0-0.947189-0.742392 1.356784 1.356784 0 0 0-0.332796-0.281596l-0.332796-0.255998-0.563194-0.435195-0.614393-0.460794-0.332796-0.204798-0.307197-0.204798a4.915143 4.915143 0 0 1-0.588793-0.383995 4.531148 4.531148 0 0 0-0.588793-0.383996 2.559971 2.559971 0 0 1-0.639993-0.435195l-0.588793-0.332796-0.588793-0.332796a2.278374 2.278374 0 0 1-0.639993-0.435195l-0.332796-0.153598a3.353561 3.353561 0 0 0-0.87039-0.383996h-0.179198a2.099176 2.099176 0 0 1-0.588793-0.358396 3.532759 3.532759 0 0 0-0.89599-0.383995h-0.153598a2.252774 2.252774 0 0 1-0.511994-0.230398l-0.511994-0.204797-0.972789-0.332796-0.537594-0.204798-0.563193-0.204798-0.409596-0.153598-0.435195-0.153598a4.915143 4.915143 0 0 1-0.793591-0.281597l-0.409595-0.153598h-0.409595a1.203186 1.203186 0 0 1-0.383996 0l-1.305585-0.332796h-0.793591l-0.665592-0.153599-0.716792-0.153598h-0.767991a6.06713 6.06713 0 0 0-1.433583-0.230397h-0.89599a5.119941 5.119941 0 0 0-1.305585 0h-4.249551z m102.219625-295.420603a44.33869 44.33869 0 0 0-31.538838 13.08145l-104.600397 104.574797-0.767991 0.844791a21.068558 21.068558 0 0 1-0.742391 0.793591l-0.307197 0.358395a3.148764 3.148764 0 0 1-0.332796 0.383996 2.150375 2.150375 0 0 1-0.383996 0.435195 2.047976 2.047976 0 0 0-0.383995 0.435195 6.604724 6.604724 0 0 0-0.767991 0.972789l-0.281597 0.332796-0.281597 0.307197-0.435195 0.588793-0.460795 0.614393a1.74078 1.74078 0 0 1-0.204797 0.332796 1.894378 1.894378 0 0 0-0.230398 0.332796 4.838344 4.838344 0 0 1-0.383995 0.588793 4.556748 4.556748 0 0 0-0.383996 0.563194 2.099176 2.099176 0 0 1-0.435195 0.665592l-0.332796 0.588793a6.195129 6.195129 0 0 0-0.332796 0.588794 2.073576 2.073576 0 0 1-0.460795 0.665592l-0.153598 0.307196a5.119941 5.119941 0 0 0-0.383996 0.87039 1.638381 1.638381 0 0 1-0.358396 0.588794 3.839956 3.839956 0 0 0-0.383995 0.87039v0.153598a3.839956 3.839956 0 0 1-0.204798 0.486394 2.559971 2.559971 0 0 0-0.230397 0.486395l-0.332796 0.972788a3.097564 3.097564 0 0 1-0.230398 0.537594l-0.204797 0.537594-0.179198 0.435195-0.179198 0.435195a4.32635 4.32635 0 0 1-0.281597 0.793591l-0.153598 0.409595a1.843179 1.843179 0 0 0 0 0.383996 0.998389 0.998389 0 0 1 0 0.383995l-0.332796 1.305585a1.484783 1.484783 0 0 0 0 0.639993c0 0.255997 0 0.537594-0.179198 0.767991v0.563194a1.254386 1.254386 0 0 1 0 0.307196 2.099176 2.099176 0 0 0 0 0.460795 7.372715 7.372715 0 0 0-0.204798 1.407984 2.201575 2.201575 0 0 1 0 0.435195 1.151987 1.151987 0 0 0 0 0.435195 5.811133 5.811133 0 0 0 0 1.305585 3.942355 3.942355 0 0 1 0 0.511994 4.479948 4.479948 0 0 0 0 0.537594 2.918366 2.918366 0 0 1 0 0.460794 2.559971 2.559971 0 0 0 0 0.614393v2.124776a15.129426 15.129426 0 0 0 0 2.175975 2.559971 2.559971 0 0 0 0 0.87039 1.279985 1.279985 0 0 1 0 0.307196 3.251163 3.251163 0 0 0 0 1.075188 5.478337 5.478337 0 0 0 0 0.639993 5.683135 5.683135 0 0 1 0 0.639992 2.329573 2.329573 0 0 0 0 0.435195 2.099176 2.099176 0 0 1 0 0.435195 5.119941 5.119941 0 0 1 0 0.716792 5.119941 5.119941 0 0 0 0 0.691192 1.254386 1.254386 0 0 0 0 0.307196 2.252774 2.252774 0 0 1 0 0.460795l0.153598 0.563194v0.87039a1.382384 1.382384 0 0 0 0 0.332796 1.356784 1.356784 0 0 1 0 0.307196l0.332796 1.305585a1.484783 1.484783 0 0 1 0 0.383996 0.998389 0.998389 0 0 0 0 0.383995 3.916755 3.916755 0 0 0 0.435195 1.203187l0.153599 0.435195 0.153598 0.435195c0 0.153598 0.153598 0.332796 0.230397 0.537593 0 0.179198 0.179198 0.383996 0.230398 0.537594l0.332796 0.972789a4.172752 4.172752 0 0 0 0.204797 0.511994 3.993554 3.993554 0 0 1 0.204798 0.486395l0.204798 0.511994a5.119941 5.119941 0 0 1 0.204797 0.486394v0.179198a1.510383 1.510383 0 0 0 0.358396 0.588793l0.179198 0.332796a3.532759 3.532759 0 0 1 0.383996 0.87039 2.355173 2.355173 0 0 0 0.435195 0.639993l0.332796 0.588793 0.307196 0.563194a2.406372 2.406372 0 0 0 0.460795 0.665592 4.684746 4.684746 0 0 0 0.383996 0.588793 3.020765 3.020765 0 0 1 0.383995 0.588794l0.230398 0.332796a2.559971 2.559971 0 0 1 0.230397 0.332796 5.119941 5.119941 0 0 0 0.537594 0.793591l0.307196 0.383995 0.281597 0.332797a1.535982 1.535982 0 0 0 0.281597 0.307196 3.993554 3.993554 0 0 0 0.383995 0.511994 3.609558 3.609558 0 0 1 0.383996 0.486395 2.559971 2.559971 0 0 0 0.383996 0.435195l0.383995 0.435195 0.332796 0.383995 0.332796 0.383996c0.281597 0.255997 0.511994 0.537594 0.742392 0.793591l0.742391 0.79359 0.819191 0.767992a8.447903 8.447903 0 0 1 0.767991 0.716791l0.383996 0.332797 0.409595 0.332796a3.046365 3.046365 0 0 1 0.435195 0.383995 3.251163 3.251163 0 0 0 0.460795 0.383996 6.707123 6.707123 0 0 0 0.947189 0.742391l0.332796 0.281597a1.71518 1.71518 0 0 1 0.332796 0.281597l0.588793 0.435195 0.588794 0.435195 0.332796 0.204798 0.332796 0.230397a3.50716 3.50716 0 0 1 0.588793 0.383995l0.563194 0.383996a2.073576 2.073576 0 0 1 0.665592 0.435195l0.588793 0.332796 0.588794 0.332796a2.278374 2.278374 0 0 1 0.639992 0.435195l0.332796 0.153599a3.353561 3.353561 0 0 0 0.87039 0.383995h0.153599a1.689581 1.689581 0 0 1 0.563193 0.358396 3.532759 3.532759 0 0 0 0.89599 0.383996h0.204797l0.486395 0.204797 0.486394 0.204798 0.972789 0.332796 0.537594 0.230397 0.537594 0.204798 0.435195 0.153598 0.460794 0.153599 0.767992 0.281596 0.435195 0.153599a1.203186 1.203186 0 0 0 0.383995 0 1.023988 1.023988 0 0 1 0.383996 0l1.331184 0.332796h0.767992l0.665592 0.153598 0.665592 0.153598h0.307197a1.612781 1.612781 0 0 0 0.486394 0 6.06713 6.06713 0 0 0 1.407984 0.230398h0.89599a5.119941 5.119941 0 0 0 1.305585 0h547.449704a44.722686 44.722686 0 1 0 0-89.419772h-435.194995l28.338874-28.338874a44.645887 44.645887 0 0 0-31.564437-76.235923z" fill="#242424" p-id="2503"></path></svg>