<?xml version="1.0" standalone="no"?><!DOCTYPE svg PUBLIC "-//W3C//DTD SVG 1.1//EN" "http://www.w3.org/Graphics/SVG/1.1/DTD/svg11.dtd"><svg t="1684077235924" class="icon" viewBox="0 0 1024 1024" version="1.1" xmlns="http://www.w3.org/2000/svg" p-id="1263" xmlns:xlink="http://www.w3.org/1999/xlink" width="200" height="200"><path d="M814.8 270.4h-98.5l-31.7-70.3c0.3 0.8 0.4 1.7 0.8 2.6-5.6-14.2-19.3-24.2-35.5-25.7H369.8c-14.8 1.4-27.4 10-33.6 22.4l-31.9 70.9h-98.5c-38.8 0-70.3 31.2-70.3 69.6v404.3c0 38.4 31.4 69.6 70.3 69.6h609.1c38.8 0 70.3-31.2 70.3-69.6V340c-0.2-38.5-31.6-69.6-70.4-69.6zM510.2 663.8c-72.5 0-131.1-58.7-131.1-131.1s58.8-131.1 131.1-131.1c72.5 0 131.2 58.7 131.2 131.1s-58.7 131.1-131.2 131.1z" fill="#020202" p-id="1264"></path></svg>