<?xml version="1.0" standalone="no"?><!DOCTYPE svg PUBLIC "-//W3C//DTD SVG 1.1//EN" "http://www.w3.org/Graphics/SVG/1.1/DTD/svg11.dtd"><svg t="1679479775941" class="icon" viewBox="0 0 1024 1024" version="1.1" xmlns="http://www.w3.org/2000/svg" p-id="1300" xmlns:xlink="http://www.w3.org/1999/xlink" width="200" height="200"><path d="M445 608H247.1c-9 0-16.4-7.4-16.4-16.4 0-9 7.4-16.4 16.4-16.4H445c9 0 16.4 7.4 16.4 16.4-0.1 9.1-7.4 16.4-16.4 16.4zM381.2 517.5H247.1c-9 0-16.4-7.4-16.4-16.4 0-9 7.4-16.4 16.4-16.4h134.2c9 0 16.4 7.4 16.4 16.4-0.1 9.1-7.5 16.4-16.5 16.4zM381.2 427H247.1c-9 0-16.4-7.4-16.4-16.4 0-9 7.4-16.4 16.4-16.4h134.2c9 0 16.4 7.4 16.4 16.4-0.1 9-7.5 16.4-16.5 16.4zM603.2 698.5H247.1c-9 0-16.4-7.4-16.4-16.4 0-9 7.4-16.4 16.4-16.4h356.2c9 0 16.4 7.4 16.4 16.4-0.1 9.1-7.5 16.4-16.5 16.4zM630.6 357.2l-7.8 7.8-31.3-31.4 7.8-7.9c8.8-8.4 22.5-8.4 31.3 0 4.2 4.2 6.5 9.8 6.5 15.7 0 6-2.3 11.6-6.5 15.8zM494.5 488l-34.7 9.6 8.7-38.6 112.2-109.3 26 28.9L494.5 488zM641 315.2c-15.4-14.7-39.5-14.7-54.9 0l-130 130.3c-1.3 1.2-2.1 2.8-2.6 4.5l-13.7 55c-1.3 5.2 1.9 10.4 7 11.8 1.6 0.4 3.3 0.4 4.9 0l54.7-13.7c1.7-0.4 3.3-1.3 4.5-2.6L641 370.2c15.1-15.3 15.1-39.7 0-55z m0 0" fill="#00aaff" p-id="1301"></path><path d="M711.5 247.4H184.6c-15.4 0-28 12.6-28 28v354.7c0 8.1 6.5 14.6 14.6 14.6s14.6-6.5 14.6-14.6V304.7c0-15.4 12.6-28 28-28h468.4c15.4 0 28 12.6 28 28v468.4c0 15.4-12.6 28-28 28H213.9c-15.4 0-28-12.6-28-28v-68.8c0-8.1-6.5-14.6-14.6-14.6s-14.6 6.5-14.6 14.6v98.1c0 15.4 12.6 28 28 25.2h526.9c15.4 2.8 28-9.8 28-25.2v-527c-0.1-15.4-12.7-28-28.1-28z" fill="#00aaff" p-id="1302"></path></svg>