<?xml version="1.0" standalone="no"?><!DOCTYPE svg PUBLIC "-//W3C//DTD SVG 1.1//EN" "http://www.w3.org/Graphics/SVG/1.1/DTD/svg11.dtd"><svg t="1684861069890" class="icon" viewBox="0 0 1024 1024" version="1.1" xmlns="http://www.w3.org/2000/svg" p-id="26295" xmlns:xlink="http://www.w3.org/1999/xlink" width="200" height="200"><path d="M706.559974 430.079943a27.306663 27.306663 0 0 1-27.306663-27.306663V181.998909H573.439992a27.306663 27.306663 0 1 1 0-54.613326h130.525849a30.037329 30.037329 0 0 1 30.037329 30.037329v245.759968a27.306663 27.306663 0 0 1-27.443196 26.897063z m-2.730666-248.081034zM703.829308 896.61428H573.439992a27.306663 27.306663 0 0 1 0-54.613326h105.949852V625.732183a27.306663 27.306663 0 0 1 54.613326 0v240.844768a30.037329 30.037329 0 0 1-30.173862 30.037329z" fill="#00aaff" p-id="26296"></path><path d="M573.439992 896.61428a27.306663 27.306663 0 0 1-27.306663-27.306663V154.692246a27.306663 27.306663 0 0 1 54.613326 0v714.615371a27.306663 27.306663 0 0 1-27.306663 27.306663z" fill="#00aaff" p-id="26297"></path><path d="M201.386708 184.729575a27.306663 27.306663 0 0 1-27.306663-27.306663v-4.915199A30.310396 30.310396 0 0 1 194.150442 122.879984L562.107727 1.501866a29.218129 29.218129 0 0 1 26.077863 3.959467A30.446929 30.446929 0 0 1 600.746655 30.173863v124.518383a27.306663 27.306663 0 0 1-54.613326 0V64.307191L225.280038 170.666644a27.306663 27.306663 0 0 1-23.89333 14.062931z m377.924216-131.345049zM571.255459 1023.999863a29.218129 29.218129 0 0 1-9.284266-1.501866L194.286976 901.11988a30.446929 30.446929 0 0 1-20.206931-29.21813v-4.915199a27.306663 27.306663 0 0 1 51.199993-13.653331L546.133329 959.692672v-90.385055a27.306663 27.306663 0 0 1 54.613326 0v124.518384a30.446929 30.446929 0 0 1-12.424532 24.71253 29.081596 29.081596 0 0 1-17.066664 5.461332z m7.918932-53.384526z" fill="#00aaff" p-id="26298"></path><path d="M201.386708 893.883614a27.306663 27.306663 0 0 1-27.306663-27.306663V157.422912a27.306663 27.306663 0 0 1 54.613326 0v709.154039a27.306663 27.306663 0 0 1-27.306663 27.306663zM464.21334 539.306595h-50.380794a27.306663 27.306663 0 1 1 0-54.613326H464.21334a27.306663 27.306663 0 0 1 0 54.613326zM912.179147 539.306595H655.359981a27.306663 27.306663 0 0 1 0-54.613326h256.819166a27.306663 27.306663 0 0 1 0 54.613326z" fill="#00aaff" p-id="26299"></path><path d="M917.777013 539.306595a27.306663 27.306663 0 0 1-19.251198-8.055466l-103.492253-103.492253a27.306663 27.306663 0 0 1 38.638928-38.638928l103.492253 103.492253a27.306663 27.306663 0 0 1-19.251197 46.55786z" fill="#00aaff" p-id="26300"></path><path d="M814.28476 642.798848a27.306663 27.306663 0 0 1-19.251198-46.557861l103.492253-103.492253a27.306663 27.306663 0 1 1 38.638928 38.638928l-103.628786 103.492253a27.306663 27.306663 0 0 1-19.251197 7.918933z" fill="#00aaff" p-id="26301"></path></svg>