<?xml version="1.0" standalone="no"?><!DOCTYPE svg PUBLIC "-//W3C//DTD SVG 1.1//EN" "http://www.w3.org/Graphics/SVG/1.1/DTD/svg11.dtd"><svg t="1684859789267" class="icon" viewBox="0 0 1024 1024" version="1.1" xmlns="http://www.w3.org/2000/svg" p-id="14968" data-spm-anchor-id="a313x.7781069.0.i19" xmlns:xlink="http://www.w3.org/1999/xlink" width="200" height="200"><path d="M960.284444 200.248889v623.502222H63.715556V200.248889h896.568888M1012.622222 147.911111H11.377778v728.177778h1001.244444V147.911111z" fill="#00aaff" p-id="14969" data-spm-anchor-id="a313x.7781069.0.i18" class="selected"></path><path d="M564.679111 615.879111h237.112889v52.337778H564.679111zM564.679111 485.831111h316.188445v52.337778H564.679111zM564.679111 355.783111h316.188445v52.337778H564.679111zM343.722667 374.442667a59.505778 59.505778 0 1 1-60.984889 59.505777 60.302222 60.302222 0 0 1 60.984889-59.505777m0-52.337778a111.843556 111.843556 0 1 0 113.208889 111.843555 112.64 112.64 0 0 0-113.208889-111.843555z" fill="#00aaff" p-id="14970" data-spm-anchor-id="a313x.7781069.0.i20" class="selected"></path><path d="M527.928889 701.895111h-52.337778a131.982222 131.982222 0 0 0-263.850667 0H159.288889a184.32 184.32 0 0 1 368.526222 0z" fill="#00aaff" p-id="14971" data-spm-anchor-id="a313x.7781069.0.i21" class="selected"></path></svg>