<?xml version="1.0" standalone="no"?><!DOCTYPE svg PUBLIC "-//W3C//DTD SVG 1.1//EN" "http://www.w3.org/Graphics/SVG/1.1/DTD/svg11.dtd"><svg t="1684920121522" class="icon" viewBox="0 0 1024 1024" version="1.1" xmlns="http://www.w3.org/2000/svg" p-id="31767" xmlns:xlink="http://www.w3.org/1999/xlink" width="200" height="200"><path d="M891.8528 593.3056l-92.16-96.0512a38.7584 38.7584 0 0 0-54.8352-1.1264 38.7584 38.7584 0 0 0-1.1264 54.8352l38.5536 40.192h-241.2032c-21.4016 0-38.8096 17.3568-38.8096 38.8096 0 21.4016 17.3568 38.8096 38.8096 38.8096h244.1216l-32.6656 35.7376c-14.4384 15.8208-13.3632 40.3456 2.4576 54.784a38.5792 38.5792 0 0 0 26.1632 10.1888c10.496 0 20.992-4.2496 28.6208-12.5952l82.944-90.6752c18.8416-20.736 18.4832-52.736-0.8704-72.9088z" fill="#1296db" p-id="31768" data-spm-anchor-id="a313x.7781069.0.i16" class=""></path><path d="M902.4 736.7168l-52.1728 57.0368a93.7472 93.7472 0 0 1-69.0688 30.464c-23.4496 0-45.8752-8.704-63.1808-24.5248-18.432-16.8448-29.2352-39.936-30.3104-64.8704-0.1536-3.7888-0.1024-7.5264 0.1536-11.264h-146.7392c-51.6096 0-93.5936-41.984-93.5936-93.5936s41.984-93.5936 93.5936-93.5936h137.8304c-1.536-11.776-0.7168-23.7568 2.2016-35.328-7.0144-3.1232-14.1312-6.0928-21.2992-8.8064 49.2544-41.6768 80.64-103.8848 80.64-173.312 0-125.184-101.8368-227.0208-227.0208-227.0208S286.3616 193.6896 286.3616 318.8736c0 69.4272 31.3856 131.6352 80.64 173.312a412.99968 412.99968 0 0 0-134.7072 83.2512c-76.288 70.5024-123.0848 166.0928-131.7888 269.2608-0.2048 2.5088-0.256 5.0176-0.2048 7.4752 0.256 16.7936 6.656 33.1776 18.176 45.6704 13.056 14.1312 31.5904 22.272 50.8416 22.272h0.1024c94.1056-0.1536 184.6784-0.8192 272.3328-1.536 24.3712-0.2048 48.1792-0.3584 71.5264-0.5632 23.4496 0.1536 47.4112 0.3584 71.8848 0.5632 87.6544 0.6656 178.2784 1.3824 272.3328 1.536h0.1024c19.2512 0 37.7856-8.0896 50.8416-22.272 11.52-12.4928 17.92-28.8256 18.176-45.6192 0.0512-2.5088 0-5.0176-0.2048-7.5264a414.0032 414.0032 0 0 0-24.0128-107.9808z" fill="#00aaff" p-id="31769" data-spm-anchor-id="a313x.7781069.0.i17" class=""></path><path d="M720.4864 801.792c-0.8192-0.7168-1.6896-1.3312-2.5088-2.0992-18.432-16.8448-29.2352-39.936-30.3104-64.8704-0.1536-3.7888-0.1024-7.5264 0.1536-11.264h-146.7392c-51.6096 0-93.5936-41.984-93.5936-93.5936s41.984-93.5936 93.5936-93.5936h137.8304c-1.536-11.776-0.7168-23.7568 2.2016-35.328-7.0144-3.1232-14.1312-6.0928-21.2992-8.8064 49.2544-41.6768 80.64-103.8848 80.64-173.312 0-125.184-101.8368-227.0208-227.0208-227.0208S286.3616 193.6896 286.3616 318.8736c0 69.4272 31.3856 131.6352 80.64 173.312a412.99968 412.99968 0 0 0-134.7072 83.2512c-76.288 70.5024-123.0848 166.0928-131.7888 269.2608-0.2048 2.5088-0.256 5.0176-0.2048 7.4752 0.256 16.7936 6.656 33.1776 18.176 45.6704 13.056 14.1312 31.5904 22.272 50.8416 22.272h0.1024c94.1056-0.1536 184.6784-0.8192 272.3328-1.536 24.3712-0.2048 48.1792-0.3584 71.5264-0.5632 23.4496 0.1536 47.4112 0.3584 71.8848 0.5632h0.8192a648.3968 648.3968 0 0 0 134.5024-116.7872z" fill="#00aaff" p-id="31770" data-spm-anchor-id="a313x.7781069.0.i15" class=""></path><path d="M799.6928 497.2544a38.7584 38.7584 0 0 0-54.8352-1.1264 38.7584 38.7584 0 0 0-1.1264 54.8352l38.5536 40.192h-241.2032c-21.4016 0-38.8096 17.3568-38.8096 38.8096 0 21.4016 17.3568 38.8096 38.8096 38.8096h244.1216l-32.6656 35.7376a38.73792 38.73792 0 0 0 2.2016 54.528c44.6464-60.8768 78.848-129.8432 99.9936-204.3904l-55.04-57.3952z" fill="#1296db" p-id="31771" data-spm-anchor-id="a313x.7781069.0.i18" class=""></path><path d="M452.4032 659.8144c-3.1744-9.4208-4.9664-19.4048-4.9664-29.9008 0-51.6096 41.984-93.5936 93.5936-93.5936h33.2288c72.96-97.1264 119.04-215.6032 127.2832-344.32-40.8576-60.3648-109.9264-100.1472-188.16-100.1472-125.184 0-227.0208 101.8368-227.0208 227.0208 0 69.4272 31.3856 131.6352 80.64 173.312a412.99968 412.99968 0 0 0-134.7072 83.2512c-63.0784 58.3168-105.9328 133.7856-123.8528 216.5248 129.024-9.728 247.3984-57.5488 343.9616-132.1472z" fill="#00aaff" p-id="31772" data-spm-anchor-id="a313x.7781069.0.i14" class=""></path><path d="M513.3824 91.8528c-125.184 0-227.0208 101.8368-227.0208 227.0208 0 35.2768 8.1408 68.6592 22.528 98.4064 99.9936-83.2512 174.336-196.1984 209.5104-325.3248-1.6384 0-3.328-0.1024-5.0176-0.1024z" fill="#00aaff" p-id="31773" data-spm-anchor-id="a313x.7781069.0.i12" class=""></path></svg>