<?xml version="1.0" standalone="no"?><!DOCTYPE svg PUBLIC "-//W3C//DTD SVG 1.1//EN" "http://www.w3.org/Graphics/SVG/1.1/DTD/svg11.dtd"><svg t="1680165842578" class="icon" viewBox="0 0 1024 1024" version="1.1" xmlns="http://www.w3.org/2000/svg" p-id="35857" xmlns:xlink="http://www.w3.org/1999/xlink" width="200" height="200"><path d="M471.1936 508.7744c-21.6576-13.312-38.4-28.5184-51.2-47.872-46.2848-69.9904-29.952-180.1216 53.5552-222.72 52.1728-26.5728 118.9888-12.8 157.44 34.304 41.9328 51.4048 49.92 107.9808 23.0912 169.216-10.7008 24.4736-25.4464 45.3632-47.5648 60.672-1.6896 1.1776-3.1744 2.56-4.7104 3.9424-0.4096 0.3584-0.6144 0.9728-1.5872 2.6624 4.9664 1.2288 9.6768 2.1504 14.2336 3.4816 57.344 16.384 105.4208 46.0288 138.5472 97.0752 18.4832 28.4672 30.0544 59.648 35.3792 92.8768 3.84 23.9104 5.7344 48.2304 7.0656 72.448 1.1264 20.7872-9.472 32.9216-31.5392 39.4752-27.2896 8.0896-55.4496 9.1136-83.5072 9.7792-108.0832 2.6624-216.2176 3.5328-324.2496-1.6896-16.7936-0.8192-33.7408-4.0448-50.1248-8.1408-24.0128-6.0416-32.3072-18.9952-31.5904-43.6224 0.9216-32 4.0448-63.6416 13.1072-94.5152 23.296-79.2064 74.1888-131.8912 152.064-158.6688 4.9664-1.7408 9.984-3.4304 15.0528-4.864 4.7104-1.28 9.5232-2.2016 16.5376-3.84z" fill="#9bc6fc" p-id="35858"></path><path d="M345.2928 221.4912c-49.9712 85.9136-47.3088 170.752 5.7856 255.488-112.128 54.9888-161.7408 151.2448-175.6672 271.36-20.736 0.4608-41.3696 1.28-60.0064-8.1408-6.4-3.2256-13.824-11.1616-14.4896-17.6128-2.2528-21.7088-4.2496-43.9808-1.5872-65.4848 7.4752-60.7744 34.5088-112.0256 81.4592-151.9616 22.4256-19.0976 48.0256-32.7168 76.288-41.1648 3.072-0.9216 6.0928-1.8944 10.8544-3.3792-32.9216-18.2272-54.2208-44.2368-64.4096-78.9504-10.24-34.9184-6.6048-68.7104 10.5472-100.5568 26.9312-50.176 81.4592-74.6496 131.2256-59.5968zM737.024 476.928c54.5792-85.4528 54.3232-170.9568 5.5808-258.0992 25.2928-7.6288 49.92-5.8368 73.3184 5.888 43.8272 21.9648 67.9936 58.3168 71.6288 106.752 3.7888 49.9712-14.1824 91.2896-55.7568 120.9344-3.8912 2.7648-8.3968 4.7616-13.5168 7.6288 2.4576 1.28 4.1472 2.4576 5.9904 3.072 92.3136 31.0272 144.0768 97.0752 162.1504 190.72 3.9424 20.5824 2.9184 42.3936 2.3552 63.5392-0.3584 14.1824-10.0864 23.3984-23.6544 26.0096-16.9472 3.2256-34.2528 4.5568-52.5312 6.8096-12.4928-122.3168-62.9248-217.9584-175.5648-273.2544z" fill="#FEC963" p-id="35859"></path><path d="M807.3728 702.1568c-6.5024-40.5504-20.7872-78.0288-42.496-111.5136-33.1264-51.0976-79.872-86.9888-142.2848-109.2608 13.8752-14.8992 25.344-32.9216 34.7648-54.4256 33.1776-75.8272 23.5008-146.7392-28.7744-210.7904-49.1008-60.16-134.144-78.592-202.2912-43.8784-46.2848 23.6032-79.36 65.3312-93.1328 117.5552-14.592 55.3984-5.1712 115.8656 25.1904 161.792 7.3216 11.1104 15.872 21.2992 25.7536 30.8224-89.1392 32.9728-147.968 96.1536-174.9504 187.904-9.3696 31.7952-14.1312 65.792-15.4112 110.2848-1.1264 38.8096 15.9744 62.1056 52.3264 71.2192 22.8352 5.7344 41.8816 8.8064 59.8528 9.6768 64.7168 3.1232 129.4848 4.1984 190.5152 4.1984 61.696 0 119.552-1.1264 169.4208-2.304 34.9696-0.8704 66.4576-2.3552 98.2528-11.776 44.7488-13.2608 52.5824-43.7248 51.3024-66.9696-1.1776-22.8352-3.2256-52.736-8.0384-82.5344z m-56.32 105.2672c-26.4192 7.8336-53.5552 9.0624-86.3232 9.8816-98.4576 2.4064-227.9936 4.352-356.608-1.8432-14.8992-0.7168-31.0784-3.3792-50.8928-8.3456-14.4384-3.6352-18.0224-6.9632-17.5104-25.1392 1.1776-40.3456 5.376-70.7584 13.568-98.6112 23.6544-80.2816 73.8304-132.6592 153.4464-160.0512 5.5296-1.8944 10.496-3.584 15.36-4.9664 3.1232-0.8704 6.2976-1.5872 10.0864-2.4576 2.1504-0.512 4.5568-1.024 7.168-1.6384 9.1136-2.1504 15.9744-9.5232 17.5104-18.7392s-2.7136-18.432-10.7008-23.296c-21.8624-13.4144-37.5808-28.0576-49.4592-45.9776-23.2448-35.1232-30.3616-81.7152-19.0464-124.6208 10.3424-39.3216 35.0208-70.656 69.4784-88.2176 16.4864-8.3968 34.4064-12.4416 52.224-12.4416 35.072 0 69.888 15.616 93.3888 44.3904 41.0624 50.2784 48.3328 103.6288 22.272 163.1744-11.3664 25.9072-25.4976 44.1344-44.5952 57.3952-2.7648 1.9456-4.9664 3.8912-6.7584 5.4784l-0.6656 0.6144c-3.328 2.9696-5.0176 6.144-5.8368 7.6288l-0.512 0.8704c-3.6352 6.2976-4.1472 13.9264-1.28 20.6336s8.704 11.6224 15.7696 13.3632c1.8432 0.4608 3.6352 0.8704 5.4272 1.28 3.2256 0.768 6.3488 1.4336 9.4208 2.3552 63.3344 18.1248 109.1584 50.0736 140.0832 97.6896 18.176 28.0576 30.208 59.5968 35.6864 93.7472 4.4544 27.6992 6.4 56.064 7.5776 77.6704 0.5632 7.3728 0.9216 14.4384-18.2784 20.1728z" fill="#474747" p-id="35860"></path><path d="M321.9456 489.5744c5.8368-2.8672 10.24-8.0896 12.032-14.3872s0.8192-13.0048-2.6112-18.5344c-48.896-78.08-50.6368-153.856-5.376-231.68 3.5328-6.0928 4.096-13.4656 1.536-20.0192a23.04512 23.04512 0 0 0-14.7968-13.6192c-60.8768-18.3808-125.952 10.7008-158.208 70.7072-20.1728 37.5296-24.32 77.2096-12.3392 117.9648 7.4752 25.4976 20.3264 47.3088 38.4512 65.2288a229.29408 229.29408 0 0 0-54.016 34.2528c-51.0464 43.4688-81.1008 99.5328-89.3952 166.7072-2.8672 23.3472-0.9216 46.7456 1.536 70.656 1.6384 16.0768 15.1552 29.8496 27.0336 35.7888 18.3808 9.2672 37.4272 10.8544 55.2448 10.8544 4.6592 0 9.216-0.1024 13.6704-0.2048l1.9968-0.0512a23.03488 23.03488 0 0 0 22.3744-20.3776c14.2848-123.6992 67.584-206.592 162.8672-253.2864z m-205.9776 227.84c-11.008-0.256-20.8384-1.536-29.3888-5.8368-0.6144-0.3584-1.5872-1.2288-2.2528-1.9456-2.0992-20.992-3.584-39.8848-1.3824-57.7536 6.8096-55.3472 31.5392-101.5296 73.5232-137.2672 19.5584-16.64 42.4448-28.9792 67.9936-36.6592 2.0992-0.6144 4.1472-1.28 6.7584-2.0992l4.3008-1.3312a23.0144 23.0144 0 1 0 4.3008-42.1376c-27.5456-15.2576-45.056-36.608-53.4528-65.28-8.5504-29.1328-5.6832-56.32 8.704-83.2 16.4864-30.72 45.1584-49.6128 75.3664-51.6608-33.9456 75.6736-30.7712 151.9616 9.4208 227.5328-91.7504 52.6848-145.6128 137.3696-163.8912 257.6384zM963.9424 636.8768c-17.8688-92.7744-66.2528-158.1568-143.9744-194.816 33.536-32.3584 49.2032-75.1104 45.4656-124.928-4.2496-56.6784-33.4336-100.1472-84.2752-125.6448-28.6208-14.336-58.9824-16.7936-90.3168-7.3216-6.656 1.9968-12.0832 6.9632-14.6944 13.4144s-2.1504 13.7728 1.28 19.8656c45.4656 81.3568 43.8784 158.0544-4.9152 234.4448-3.5328 5.5296-4.5568 12.288-2.7648 18.5856s6.144 11.5712 12.032 14.4896c96.8704 47.5648 150.1184 130.9696 162.8672 255.0272 0.6144 6.144 3.7376 11.8272 8.5504 15.6672 4.096 3.2768 9.1648 5.0176 14.336 5.0176 0.9216 0 1.8944-0.0512 2.8672-0.1536 5.4784-0.6656 10.8544-1.28 16.1792-1.8432 12.3904-1.3824 25.1904-2.7648 37.888-5.1712 25.1392-4.8128 41.7792-23.7056 42.3424-48.0768l0.1536-6.144c0.4608-20.3264 1.024-41.3184-3.0208-62.4128z m-43.1104 61.1328l-0.1536 6.2464c-0.0512 1.3312-0.0512 3.0208-4.9664 3.9424-9.0112 1.7408-18.3808 2.8672-28.16 3.9936-17.3056-119.3472-71.0656-203.776-163.6352-256.9216 40.2432-74.7008 43.1104-152.0128 8.5504-230.4512 9.5232 0.6656 18.8416 3.2768 28.0064 7.8848 36.608 18.3296 55.9104 47.104 58.9824 87.9104 3.2256 43.1104-11.8784 75.9808-46.1824 100.4544-1.3312 0.9216-3.4816 2.048-5.9392 3.3792-1.7408 0.9216-3.5328 1.8432-5.4272 2.9184a23.02976 23.02976 0 0 0 0.6656 40.5504c0.5632 0.3072 1.0752 0.5632 1.536 0.8704 1.8432 1.024 4.4032 2.5088 7.7312 3.584 81.664 27.4432 129.6896 84.1216 146.8416 173.2608 3.1232 16.128 2.6624 33.7408 2.1504 52.3776z" fill="#474747" p-id="35861"></path></svg>