<?xml version="1.0" standalone="no"?><!DOCTYPE svg PUBLIC "-//W3C//DTD SVG 1.1//EN" "http://www.w3.org/Graphics/SVG/1.1/DTD/svg11.dtd"><svg t="1679390656862" class="icon" viewBox="0 0 1024 1024" version="1.1" xmlns="http://www.w3.org/2000/svg" p-id="5414" xmlns:xlink="http://www.w3.org/1999/xlink" width="200" height="200"><path d="M851.349 383.512c43.677 6.347 61.117 60.021 29.512 90.828l-126.42 123.229a53.253 53.253 0 0 0-15.315 47.133l29.844 174.002c7.461 43.5-38.197 76.673-77.263 56.135l-156.263-82.152a53.248 53.248 0 0 0-49.559 0l-156.263 82.152c-39.066 20.538-84.724-12.635-77.263-56.135l29.844-174.002 569.146-261.19z" fill="#FFEABB" p-id="5415"></path><path d="M716.565 911.044c-13.231 0.001-26.527-3.19-38.817-9.652L521.484 819.24a23.243 23.243 0 0 0-21.638 0l-156.264 82.152c-28.255 14.854-61.848 12.426-87.673-6.336-25.824-18.763-38.515-49.963-33.119-81.424l29.843-174.002a23.247 23.247 0 0 0-6.686-20.579l-126.42-123.229c-22.858-22.281-30.93-54.98-21.066-85.339s35.615-52.069 67.204-56.659l174.708-25.387a23.248 23.248 0 0 0 17.506-12.719l78.131-158.312C450.138 128.783 478.747 111 510.665 111c0.002 0-0.001 0 0 0 31.92 0 60.526 17.782 74.653 46.406l78.132 158.312a23.25 23.25 0 0 0 17.505 12.719l174.709 25.387c31.589 4.59 57.339 26.301 67.203 56.659s1.792 63.059-21.065 85.339l-126.42 123.229a23.25 23.25 0 0 0-6.687 20.578l29.844 174.003c5.396 31.461-7.294 62.661-33.119 81.424-14.591 10.6-31.667 15.987-48.855 15.988zM510.666 171c-4.346 0-15.076 1.263-20.85 12.96l-78.132 158.312a83.234 83.234 0 0 1-62.682 45.542L174.295 413.2c-12.909 1.876-17.426 11.691-18.769 15.824-1.343 4.132-3.458 14.728 5.883 23.833l126.419 123.229a83.234 83.234 0 0 1 23.942 73.688l-29.843 174.001c-2.205 12.856 5.734 20.186 9.249 22.74 3.516 2.555 12.939 7.838 24.485 1.77l156.264-82.152a83.234 83.234 0 0 1 77.479 0l156.263 82.152c11.548 6.071 20.97 0.785 24.485-1.77s11.454-9.884 9.249-22.74l-29.844-174.002a83.235 83.235 0 0 1 23.942-73.687l126.42-123.229c9.341-9.105 7.226-19.7 5.883-23.833s-5.859-13.948-18.769-15.824l-174.708-25.387a83.237 83.237 0 0 1-62.682-45.541L531.514 183.96c-5.773-11.697-16.503-12.96-20.848-12.96z" fill="#F9C73D" p-id="5416"></path></svg>