<?xml version="1.0" standalone="no"?><!DOCTYPE svg PUBLIC "-//W3C//DTD SVG 1.1//EN" "http://www.w3.org/Graphics/SVG/1.1/DTD/svg11.dtd"><svg t="1679484227497" class="icon" viewBox="0 0 1024 1024" version="1.1" xmlns="http://www.w3.org/2000/svg" p-id="3178" xmlns:xlink="http://www.w3.org/1999/xlink" width="200" height="200"><path d="M902.4 964.266667H193.066667c-29.866667 0-53.333333-24.533333-53.333334-53.333334V432c0-17.066667 8.533333-33.066667 22.4-43.733333l354.133334-276.266667c19.2-13.866667 44.8-13.866667 62.933333 0l354.133333 276.266667c13.866667 9.6 22.4 26.666667 22.4 43.733333v478.933333c0 29.866667-23.466667 53.333333-53.333333 53.333334z" fill="#8a8a8a" p-id="3179"></path><path d="M661.333333 770.133333H435.2c-8.533333 0-16-7.466667-16-16s7.466667-16 16-16H661.333333c8.533333 0 16 7.466667 16 16s-7.466667 16-16 16z" fill="#8a8a8a" p-id="3180"></path><path d="M888.533333 170.666667m-17.066666 0a17.066667 17.066667 0 1 0 34.133333 0 17.066667 17.066667 0 1 0-34.133333 0Z" fill="#8a8a8a" p-id="3181"></path><path d="M52.266667 939.733333m-6.4 0a6.4 6.4 0 1 0 12.8 0 6.4 6.4 0 1 0-12.8 0Z" fill="#8a8a8a" p-id="3182"></path><path d="M187.733333 152.533333m-8.533333 0a8.533333 8.533333 0 1 0 17.066667 0 8.533333 8.533333 0 1 0-17.066667 0Z" fill="#8a8a8a" p-id="3183"></path><path d="M906.666667 126.933333m-8.533334 0a8.533333 8.533333 0 1 0 17.066667 0 8.533333 8.533333 0 1 0-17.066667 0Z" fill="#8a8a8a" p-id="3184"></path><path d="M843.733333 105.6l-21.333333-6.4 6.4-21.333333c1.066667-2.133333 0-4.266667-2.133333-4.266667h-1.066667c-2.133333-1.066667-4.266667 0-4.266667 2.133333l-6.4 21.333334-21.333333-6.4c-2.133333-1.066667-4.266667 0-4.266667 2.133333v1.066667c-1.066667 2.133333 0 4.266667 2.133334 4.266666l21.333333 6.4-6.4 21.333334c-1.066667 2.133333 0 4.266667 2.133333 4.266666h1.066667c2.133333 1.066667 4.266667 0 4.266667-2.133333l6.4-21.333333 21.333333 6.4c2.133333 1.066667 4.266667 0 4.266667-2.133334v-1.066666c1.066667-1.066667 0-3.2-2.133334-4.266667zM92.8 968.533333l-11.733333-4.266666 4.266666-10.666667c0-1.066667 0-2.133333-1.066666-2.133333h-1.066667c-1.066667 0-2.133333 0-2.133333 1.066666l-4.266667 11.733334-11.733333-4.266667c-1.066667 0-2.133333 0-2.133334 1.066667v1.066666c0 1.066667 0 2.133333 1.066667 2.133334l11.733333 4.266666-4.266666 11.733334c0 1.066667 0 2.133333 1.066666 2.133333h1.066667c1.066667 0 2.133333 0 2.133333-1.066667l4.266667-11.733333 11.733333 4.266667c1.066667 0 2.133333 0 2.133334-1.066667v-1.066667c1.066667-1.066667 0-2.133333-1.066667-3.2zM129.066667 144l-13.866667 2.133333-2.133333-13.866666c0-1.066667-1.066667-2.133333-3.2-2.133334-1.066667 0-2.133333 1.066667-2.133334 3.2l2.133334 13.866667-12.8 2.133333c-1.066667 0-2.133333 1.066667-2.133334 3.2 0 1.066667 1.066667 2.133333 3.2 2.133334l13.866667-2.133334 2.133333 13.866667c0 1.066667 1.066667 2.133333 3.2 2.133333 1.066667 0 2.133333-1.066667 2.133334-3.2l-2.133334-13.866666 13.866667-2.133334c1.066667 0 2.133333-1.066667 2.133333-3.2-2.133333-1.066667-3.2-2.133333-4.266666-2.133333z" fill="#8a8a8a" p-id="3185"></path><path d="M834.133333 484.266667c-8.533333 0-16-7.466667-16-16v-45.866667c0-11.733333-5.333333-23.466667-14.933333-29.866667l-64-48c-7.466667-5.333333-8.533333-14.933333-3.2-22.4 5.333333-7.466667 14.933333-8.533333 22.4-3.2l62.933333 48c18.133333 12.8 27.733333 34.133333 27.733334 55.466667v45.866667c1.066667 8.533333-5.333333 16-14.933334 16z" fill="#8a8a8a" p-id="3186"></path><path d="M853.333333 937.6H144C105.6 937.6 74.666667 906.666667 74.666667 868.266667V389.333333c0-22.4 10.666667-42.666667 28.8-56.533333L457.6 56.533333c24.533333-18.133333 57.6-18.133333 82.133333 0l355.2 276.266667c17.066667 12.8 27.733333 34.133333 27.733334 55.466667v478.933333c0 39.466667-30.933333 70.4-69.333334 70.4zM499.2 75.733333c-7.466667 0-16 2.133333-22.4 7.466667L122.666667 358.4c-9.6 7.466667-16 19.2-16 30.933333v478.933334c0 20.266667 17.066667 37.333333 37.333333 37.333333H853.333333c20.266667 0 37.333333-17.066667 37.333334-37.333333V389.333333c0-11.733333-5.333333-23.466667-14.933334-29.866666l-355.2-277.333334c-6.4-4.266667-13.866667-6.4-21.333333-6.4z" fill="#8a8a8a" p-id="3187"></path><path d="M611.2 728.533333H386.133333c-8.533333 0-16-7.466667-16-16s7.466667-16 16-16h226.133334c8.533333 0 16 7.466667 16 16s-7.466667 16-17.066667 16z" fill="#8a8a8a" p-id="3188"></path></svg>