<?xml version="1.0" standalone="no"?><!DOCTYPE svg PUBLIC "-//W3C//DTD SVG 1.1//EN" "http://www.w3.org/Graphics/SVG/1.1/DTD/svg11.dtd"><svg t="1680166160526" class="icon" viewBox="0 0 1024 1024" version="1.1" xmlns="http://www.w3.org/2000/svg" p-id="65085" xmlns:xlink="http://www.w3.org/1999/xlink" width="200" height="200"><path d="M262.8096 357.2736h619.8272s-41.472-43.4176-41.472-110.2848c0-63.4368 41.472-92.7232 41.472-92.7232H262.8096C206.7456 154.2656 161.28 199.68 161.28 255.744c0 56.064 45.4656 101.5296 101.5296 101.5296z" fill="#F5D126" p-id="65086"></path><path d="M882.6368 154.2656h-81.3056s-41.472 29.2864-41.472 92.7232c0 66.8672 41.472 110.2848 41.472 110.2848h81.3056s-41.472-43.4176-41.472-110.2848c0-63.4368 41.472-92.7232 41.472-92.7232z" fill="#F2B200" p-id="65087"></path><path d="M262.8096 871.3728h619.8272s-41.472-43.4176-41.472-110.2848c0-63.4368 41.472-92.7232 41.472-92.7232H262.8096c-56.064 0-101.5296 45.4656-101.5296 101.5296 0 56.064 45.4656 101.4784 101.5296 101.4784z" fill="#FF6950" p-id="65088"></path><path d="M882.6368 668.3648h-81.3056s-41.472 29.2864-41.472 92.7232c0 66.8672 41.472 110.2848 41.472 110.2848h81.3056s-41.472-43.4176-41.472-110.2848c0-63.4368 41.472-92.7232 41.472-92.7232z" fill="#F4403B" p-id="65089"></path><path d="M882.6368 372.6336H262.8096c-64.4608 0-116.8896-52.4288-116.8896-116.8896s52.4288-116.8896 116.8896-116.8896H882.688c6.7072 0 12.5952 4.352 14.6432 10.7008 2.048 6.4-0.3072 13.312-5.7856 17.2032-1.3312 0.9728-34.9696 26.0608-34.9696 80.1792 0 59.4944 36.9152 99.328 37.2736 99.7376 4.1984 4.4544 5.376 11.008 2.9696 16.64a15.49312 15.49312 0 0 1-14.1824 9.3184zM262.8096 169.6256c-47.5136 0-86.1696 38.656-86.1696 86.1696s38.656 86.1696 86.1696 86.1696h589.7728c-12.5952-21.0432-26.7776-53.8624-26.7776-94.9248 0-34.4576 10.9568-60.0576 22.4256-77.3632H262.8096z" fill="#333333" p-id="65090"></path><path d="M781.1584 614.3488H161.28s41.472-43.4176 41.472-110.2848c0-63.4368-41.472-92.7232-41.472-92.7232h619.8272c56.064 0 101.5296 45.4656 101.5296 101.5296 0 56.0128-45.4144 101.4784-101.4784 101.4784z" fill="#5BC7FC" p-id="65091"></path><path d="M781.1072 411.2896h-76.2368c56.064 0 101.5296 45.4656 101.5296 101.5296 0 56.064-45.4656 101.5296-101.5296 101.5296h76.2368c56.064 0 101.5296-45.4656 101.5296-101.5296 0-56.064-45.4144-101.5296-101.5296-101.5296z" fill="#25C3F4" p-id="65092"></path><path d="M781.1584 629.7088H161.28c-6.144 0-11.7248-3.6864-14.1312-9.3184-2.4064-5.632-1.2288-12.1856 3.0208-16.64 0.3584-0.3584 37.2224-40.192 37.2224-99.6864 0-54.1184-33.6384-79.2064-35.072-80.2304a15.43168 15.43168 0 0 1-5.632-17.2032c2.048-6.3488 7.8848-10.6496 14.5408-10.6496h619.8272c64.4608 0 116.8896 52.4288 116.8896 116.8896s-52.3776 116.8384-116.7872 116.8384z m-589.824-30.72h589.7728c47.5136 0 86.1696-38.656 86.1696-86.1696s-38.656-86.1696-86.1696-86.1696H195.6864c11.4688 17.3056 22.4256 42.9056 22.4256 77.3632 0 41.0624-14.1824 73.9328-26.7776 94.976zM882.6368 886.7328H262.8096c-64.4608 0-116.8896-52.4288-116.8896-116.8896 0-64.4608 52.4288-116.8896 116.8896-116.8896H882.688a15.35488 15.35488 0 0 1 8.8576 27.904c-1.3312 0.9728-34.9696 26.0608-34.9696 80.1792 0 60.0064 36.864 99.328 37.2224 99.6864 4.2496 4.4544 5.4272 11.008 3.0208 16.64a15.4112 15.4112 0 0 1-14.1824 9.3696zM262.8096 683.7248c-47.5136 0-86.1696 38.656-86.1696 86.1696 0 47.5136 38.656 86.1696 86.1696 86.1696h589.7728c-12.5952-21.0432-26.7776-53.8624-26.7776-94.9248 0-34.4576 10.9568-60.0576 22.4256-77.3632H262.8096z" fill="#333333" p-id="65093"></path><path d="M524.0832 232.6016h-36.1984c-8.4992 0-15.36-6.8608-15.36-15.36s6.8608-15.36 15.36-15.36h36.1984c8.4992 0 15.36 6.8608 15.36 15.36s-6.8608 15.36-15.36 15.36zM431.6672 232.6016H273.8176c-8.4992 0-15.36-6.8608-15.36-15.36s6.8608-15.36 15.36-15.36h157.8496c8.4992 0 15.36 6.8608 15.36 15.36s-6.8608 15.36-15.36 15.36zM524.0832 485.0688h-36.1984c-8.4992 0-15.36-6.8608-15.36-15.36s6.8608-15.36 15.36-15.36h36.1984c8.4992 0 15.36 6.8608 15.36 15.36s-6.8608 15.36-15.36 15.36zM431.6672 485.0688H273.8176c-8.4992 0-15.36-6.8608-15.36-15.36s6.8608-15.36 15.36-15.36h157.8496c8.4992 0 15.36 6.8608 15.36 15.36s-6.8608 15.36-15.36 15.36zM524.0832 746.6496h-36.1984c-8.4992 0-15.36-6.8608-15.36-15.36s6.8608-15.36 15.36-15.36h36.1984c8.4992 0 15.36 6.8608 15.36 15.36s-6.8608 15.36-15.36 15.36zM431.6672 746.6496H273.8176c-8.4992 0-15.36-6.8608-15.36-15.36s6.8608-15.36 15.36-15.36h157.8496c8.4992 0 15.36 6.8608 15.36 15.36s-6.8608 15.36-15.36 15.36z" fill="#FFFFFF" p-id="65094"></path></svg>