<?xml version="1.0" encoding="UTF-8"?>
<!DOCTYPE svg PUBLIC "-//W3C//DTD SVG 1.1//EN" "http://www.w3.org/Graphics/SVG/1.1/DTD/svg11.dtd">
<svg xmlns="http://www.w3.org/2000/svg" version="1.1" width="160px" height="160px" style="shape-rendering:geometricPrecision; text-rendering:geometricPrecision; image-rendering:optimizeQuality; fill-rule:evenodd; clip-rule:evenodd" xmlns:xlink="http://www.w3.org/1999/xlink">
<g><path style="opacity:0.954" fill="#343332" d="M 25.5,7.5 C 68.8346,7.33334 112.168,7.50001 155.5,8C 156.554,9.38762 156.72,10.8876 156,12.5C 148.073,20.6182 146.407,29.9515 151,40.5C 152.271,43.4326 153.938,46.0993 156,48.5C 156.667,49.8333 156.667,51.1667 156,52.5C 134.238,53.1641 112.405,53.4974 90.5,53.5C 67.7721,53.6515 45.1054,53.1515 22.5,52C 8.73772,43.7085 5.23772,32.2085 12,17.5C 15.5795,12.7307 20.0795,9.39738 25.5,7.5 Z"/></g>
<g><path style="opacity:1" fill="#f3d028" d="M 133.5,13.5 C 132.36,15.7802 131.193,18.1136 130,20.5C 128.54,29.5909 129.706,38.2575 133.5,46.5C 98.1667,46.5 62.8333,46.5 27.5,46.5C 19.3206,44.3185 15.3206,38.9851 15.5,30.5C 15.4374,22.0605 19.4374,16.5605 27.5,14C 62.8318,13.5 98.1651,13.3333 133.5,13.5 Z"/></g>
<g><path style="opacity:1" fill="#efb001" d="M 133.5,13.5 C 137.555,13.1758 141.555,13.5091 145.5,14.5C 143.54,19.0081 142.207,23.6748 141.5,28.5C 142.362,34.2822 143.696,39.9488 145.5,45.5C 141.702,46.4834 137.702,46.8168 133.5,46.5C 129.706,38.2575 128.54,29.5909 130,20.5C 131.193,18.1136 132.36,15.7802 133.5,13.5 Z"/></g>
<g><path style="opacity:1" fill="#fffcf2" d="M 32.5,19.5 C 43.505,19.3335 54.505,19.5002 65.5,20C 67.5268,21.3957 67.8602,23.0624 66.5,25C 54.8381,25.4999 43.1714,25.6665 31.5,25.5C 31.3253,23.3792 31.6586,21.3792 32.5,19.5 Z"/></g>
<g><path style="opacity:1" fill="#fffbee" d="M 74.5,19.5 C 77.5184,19.3354 80.5184,19.502 83.5,20C 85.2826,21.0665 85.7826,22.5665 85,24.5C 81.2564,25.626 77.423,25.7927 73.5,25C 72.2427,22.9235 72.576,21.0902 74.5,19.5 Z"/></g>
<g><path style="opacity:1" fill="#ccad25" d="M 145.5,45.5 C 146.043,45.56 146.376,45.8933 146.5,46.5C 106.669,47.8306 67.0021,47.8306 27.5,46.5C 62.8333,46.5 98.1667,46.5 133.5,46.5C 137.702,46.8168 141.702,46.4834 145.5,45.5 Z"/></g>
<g><path style="opacity:0.953" fill="#333333" d="M 9.5,57.5 C 52.5013,57.3333 95.5013,57.5 138.5,58C 151.76,62.3374 157.593,71.5041 156,85.5C 153.687,93.8159 148.52,99.6492 140.5,103C 96.8333,103.667 53.1667,103.667 9.5,103C 8.44636,101.612 8.27969,100.112 9,98.5C 18.8911,86.3609 18.8911,74.3609 9,62.5C 8.36026,60.735 8.52692,59.0683 9.5,57.5 Z"/></g>
<g><path style="opacity:1" fill="#5bc6fb" d="M 19.5,64.5 C 56.5015,64.3333 93.5015,64.5 130.5,65C 137.033,70.7948 139.2,77.9615 137,86.5C 135.451,90.8704 132.951,94.5371 129.5,97.5C 92.494,97.8332 55.494,97.4999 18.5,96.5C 23.3299,85.915 23.6633,75.2483 19.5,64.5 Z"/></g>
<g><path style="opacity:1" fill="#33b8e5" d="M 129.5,97.5 C 132.951,94.5371 135.451,90.8704 137,86.5C 139.2,77.9615 137.033,70.7948 130.5,65C 93.5015,64.5 56.5015,64.3333 19.5,64.5C 37.9279,63.8273 57.0945,63.494 77,63.5C 97.8821,63.356 118.715,63.856 139.5,65C 149.859,70.9881 152.359,79.4881 147,90.5C 142.331,95.7512 136.498,98.0846 129.5,97.5 Z"/></g>
<g><path style="opacity:1" fill="#f8fcfe" d="M 32.5,69.5 C 43.8382,69.3335 55.1716,69.5001 66.5,70C 67.8333,71.6667 67.8333,73.3333 66.5,75C 55.1667,75.6667 43.8333,75.6667 32.5,75C 31.2475,73.1722 31.2475,71.3388 32.5,69.5 Z"/></g>
<g><path style="opacity:1" fill="#f4fbfe" d="M 73.5,69.5 C 77.1817,69.3347 80.8484,69.5014 84.5,70C 85.5536,71.3876 85.7203,72.8876 85,74.5C 81.5915,75.6219 78.0915,75.7886 74.5,75C 72.3652,73.4443 72.0319,71.6109 73.5,69.5 Z"/></g>
<g><path style="opacity:0.896" fill="#383433" d="M 26.5,107.5 C 69.168,107.333 111.835,107.5 154.5,108C 155.574,108.739 156.241,109.739 156.5,111C 146.002,123.23 145.835,135.73 156,148.5C 156.825,150.701 156.325,152.534 154.5,154C 112.5,154.667 70.5,154.667 28.5,154C 13.7677,150.25 7.26769,140.75 9,125.5C 11.6834,116.318 17.5167,110.318 26.5,107.5 Z"/></g>
<g><path style="opacity:1" fill="#fe6950" d="M 133.5,114.5 C 127.904,122.615 127.071,131.282 131,140.5C 132.18,142.86 133.347,145.193 134.5,147.5C 99.5,147.5 64.5,147.5 29.5,147.5C 17.8423,144.2 13.3423,136.533 16,124.5C 17.8333,120 21,116.833 25.5,115C 61.4985,114.5 97.4985,114.333 133.5,114.5 Z"/></g>
<g><path style="opacity:1" fill="#f2403b" d="M 133.5,114.5 C 137.555,114.176 141.555,114.509 145.5,115.5C 140.087,125.977 140.42,136.31 146.5,146.5C 142.702,147.483 138.702,147.817 134.5,147.5C 133.347,145.193 132.18,142.86 131,140.5C 127.071,131.282 127.904,122.615 133.5,114.5 Z"/></g>
<g><path style="opacity:1" fill="#fffaf9" d="M 32.5,120.5 C 43.8382,120.333 55.1716,120.5 66.5,121C 67.8333,122.667 67.8333,124.333 66.5,126C 55.1667,126.667 43.8333,126.667 32.5,126C 31.2475,124.172 31.2475,122.339 32.5,120.5 Z"/></g>
<g><path style="opacity:1" fill="#fff5f4" d="M 73.5,120.5 C 77.1817,120.335 80.8484,120.501 84.5,121C 85.5536,122.388 85.7203,123.888 85,125.5C 81.5915,126.622 78.0915,126.789 74.5,126C 72.3652,124.444 72.0319,122.611 73.5,120.5 Z"/></g>
<g><path style="opacity:1" fill="#5b3d38" d="M 146.5,146.5 C 147.043,146.56 147.376,146.893 147.5,147.5C 108.002,148.831 68.6687,148.831 29.5,147.5C 64.5,147.5 99.5,147.5 134.5,147.5C 138.702,147.817 142.702,147.483 146.5,146.5 Z"/></g>
</svg>
