<?xml version="1.0" standalone="no"?><!DOCTYPE svg PUBLIC "-//W3C//DTD SVG 1.1//EN" "http://www.w3.org/Graphics/SVG/1.1/DTD/svg11.dtd"><svg t="1680165394057" class="icon" viewBox="0 0 1024 1024" version="1.1" xmlns="http://www.w3.org/2000/svg" p-id="9609" xmlns:xlink="http://www.w3.org/1999/xlink" width="200" height="200"><path d="M822.6 959.6h-599c-26 0-47-21.1-47-47V109.2c0-26 21.1-47 47-47h599c26 0 47 21.1 47 47v803.4c0.1 25.9-21 47-47 47z" fill="#83CDFF" p-id="9610"></path><path d="M341 959.6H224.3c-26.4 0-47.7-21.4-47.7-47.7v-802c0-26.4 21.4-47.7 47.7-47.7H341v897.4z" fill="#4F95FC" p-id="9611"></path><path d="M859.2 286.3H558.3c-19.4 0-35.1-15.7-35.1-35.1 0-19.4 15.7-35.1 35.1-35.1h300.9c5.8 0 10.5 4.7 10.5 10.5v49.2c0 5.8-4.7 10.5-10.5 10.5z" fill="#FFF188" p-id="9612"></path><path d="M848.7 234.6v33.3H560.4c-9 0-16.2-7.3-16.2-16.2 0-9.4 7.6-17 17-17h287.5m7.9-21.1H561.2c-21 0-38 17-38 38 0 20.6 16.7 37.3 37.3 37.3h296.3c7.2 0 13-5.8 13-13v-49.2c-0.1-7.3-6-13.1-13.2-13.1z" fill="" p-id="9613"></path><path d="M859.2 434H558.3c-19.4 0-35.1-15.7-35.1-35.1 0-19.4 15.7-35.1 35.1-35.1h300.9c5.8 0 10.5 4.7 10.5 10.5v49.2c0 5.8-4.7 10.5-10.5 10.5z" fill="#FFF188" p-id="9614"></path><path d="M848.7 382.2v33.3H560.4c-9 0-16.2-7.3-16.2-16.2 0-9.4 7.6-17 17-17h287.5m7.9-21.1H561.2c-21 0-38 17-38 38 0 20.6 16.7 37.3 37.3 37.3h296.3c7.2 0 13-5.8 13-13v-49.2c-0.1-7.3-6-13.1-13.2-13.1z" fill="" p-id="9615"></path><path d="M859.2 586.9H558.3c-19.4 0-35.1-15.7-35.1-35.1 0-19.4 15.7-35.1 35.1-35.1h300.9c5.8 0 10.5 4.7 10.5 10.5v49.2c0 5.8-4.7 10.5-10.5 10.5z" fill="#FFF188" p-id="9616"></path><path d="M848.7 535.1v33.3H560.4c-9 0-16.2-7.3-16.2-16.2 0-9.4 7.6-17 17-17h287.5m7.9-21.1H561.2c-21 0-38 17-38 38 0 20.6 16.7 37.3 37.3 37.3h296.3c7.2 0 13-5.8 13-13v-49.2c-0.1-7.3-6-13.1-13.2-13.1z" fill="" p-id="9617"></path><path d="M822.6 83.1c14.4 0 26 11.7 26 26v803.4c0 14.4-11.7 26-26 26h-599c-14.4 0-26-11.7-26-26V109.2c0-14.4 11.7-26 26-26h599m0-21.1h-599c-26 0-47 21.1-47 47v803.4c0 26 21.1 47 47 47h599c26 0 47-21.1 47-47V109.2c0.1-26-21-47.1-47-47.1z" fill="" p-id="9618"></path><path d="M320 83.1v855.4h-95.7c-14.7 0-26.7-12-26.7-26.7v-802c0-14.7 12-26.7 26.7-26.7H320m21-21H224.3c-26.4 0-47.7 21.4-47.7 47.7v802c0 26.4 21.4 47.7 47.7 47.7H341V62.1z" fill="" p-id="9619"></path><path d="M228.6 184.9h-85.9c-1.5 0-2.8-1.3-2.8-2.8v-23.8c0-1.5 1.3-2.8 2.8-2.8h85.9c1.5 0 2.8 1.3 2.8 2.8v23.8c0 1.6-1.2 2.8-2.8 2.8z" fill="#5CC5FF" p-id="9620"></path><path d="M211.6 166.1c2.2 0 4.1 1.9 4.1 4.1 0 2.2-1.9 4.1-4.1 4.1h-51.8c-2.2 0-4.1-1.9-4.1-4.1 0-2.2 1.9-4.1 4.1-4.1h51.8m0-15.7h-51.8c-10.9 0-19.9 8.9-19.9 19.9s8.9 19.9 19.9 19.9h51.8c10.9 0 19.9-8.9 19.9-19.9s-9-19.9-19.9-19.9z" fill="" p-id="9621"></path><path d="M228.6 877.3h-85.9c-1.5 0-2.8-1.3-2.8-2.8v-23.8c0-1.5 1.3-2.8 2.8-2.8h85.9c1.5 0 2.8 1.3 2.8 2.8v23.8c0 1.5-1.2 2.8-2.8 2.8z" fill="#5CC5FF" p-id="9622"></path><path d="M211.6 858.5c2.2 0 4.1 1.9 4.1 4.1s-1.9 4.1-4.1 4.1h-51.8c-2.2 0-4.1-1.9-4.1-4.1s1.9-4.1 4.1-4.1h51.8m0-15.8h-51.8c-10.9 0-19.9 8.9-19.9 19.9 0 10.9 8.9 19.9 19.9 19.9h51.8c10.9 0 19.9-8.9 19.9-19.9-0.1-10.9-9-19.9-19.9-19.9z" fill="" p-id="9623"></path><path d="M228.6 738.8h-85.9c-1.5 0-2.8-1.3-2.8-2.8v-23.8c0-1.5 1.3-2.8 2.8-2.8h85.9c1.5 0 2.8 1.3 2.8 2.8V736c0 1.6-1.2 2.8-2.8 2.8z" fill="#5CC5FF" p-id="9624"></path><path d="M211.6 720c2.2 0 4.1 1.9 4.1 4.1s-1.9 4.1-4.1 4.1h-51.8c-2.2 0-4.1-1.9-4.1-4.1s1.9-4.1 4.1-4.1h51.8m0-15.7h-51.8c-10.9 0-19.9 8.9-19.9 19.9 0 10.9 8.9 19.9 19.9 19.9h51.8c10.9 0 19.9-8.9 19.9-19.9-0.1-11-9-19.9-19.9-19.9z" fill="" p-id="9625"></path><path d="M228.6 600.3h-85.9c-1.5 0-2.8-1.3-2.8-2.8v-23.8c0-1.5 1.3-2.8 2.8-2.8h85.9c1.5 0 2.8 1.3 2.8 2.8v23.8c0 1.6-1.2 2.8-2.8 2.8z" fill="#5CC5FF" p-id="9626"></path><path d="M211.6 581.5c2.2 0 4.1 1.9 4.1 4.1s-1.9 4.1-4.1 4.1h-51.8c-2.2 0-4.1-1.9-4.1-4.1s1.9-4.1 4.1-4.1h51.8m0-15.7h-51.8c-10.9 0-19.9 8.9-19.9 19.9 0 10.9 8.9 19.9 19.9 19.9h51.8c10.9 0 19.9-8.9 19.9-19.9-0.1-11-9-19.9-19.9-19.9z" fill="" p-id="9627"></path><path d="M228.6 461.9h-85.9c-1.5 0-2.8-1.3-2.8-2.8v-23.8c0-1.5 1.3-2.8 2.8-2.8h85.9c1.5 0 2.8 1.3 2.8 2.8v23.8c0 1.5-1.2 2.8-2.8 2.8z" fill="#5CC5FF" p-id="9628"></path><path d="M211.6 443.1c2.2 0 4.1 1.9 4.1 4.1 0 2.2-1.9 4.1-4.1 4.1h-51.8c-2.2 0-4.1-1.9-4.1-4.1 0-2.2 1.9-4.1 4.1-4.1h51.8m0-15.8h-51.8c-10.9 0-19.9 8.9-19.9 19.9 0 10.9 8.9 19.9 19.9 19.9h51.8c10.9 0 19.9-8.9 19.9-19.9-0.1-10.9-9-19.9-19.9-19.9z" fill="" p-id="9629"></path><path d="M228.6 323.4h-85.9c-1.5 0-2.8-1.3-2.8-2.8v-23.8c0-1.5 1.3-2.8 2.8-2.8h85.9c1.5 0 2.8 1.3 2.8 2.8v23.8c0 1.5-1.2 2.8-2.8 2.8z" fill="#5CC5FF" p-id="9630"></path><path d="M211.6 304.6c2.2 0 4.1 1.9 4.1 4.1s-1.9 4.1-4.1 4.1h-51.8c-2.2 0-4.1-1.9-4.1-4.1s1.9-4.1 4.1-4.1h51.8m0-15.8h-51.8c-10.9 0-19.9 8.9-19.9 19.9s8.9 19.9 19.9 19.9h51.8c10.9 0 19.9-8.9 19.9-19.9s-9-19.9-19.9-19.9z" fill="" p-id="9631"></path></svg>