<?xml version="1.0" standalone="no"?><!DOCTYPE svg PUBLIC "-//W3C//DTD SVG 1.1//EN" "http://www.w3.org/Graphics/SVG/1.1/DTD/svg11.dtd"><svg t="1680230574626" class="icon" viewBox="0 0 1028 1024" version="1.1" xmlns="http://www.w3.org/2000/svg" p-id="4087" xmlns:xlink="http://www.w3.org/1999/xlink" width="200.78125" height="200"><path d="M1007.158988 422.870204l-122.77551-104.489796-86.413061-73.142857-36.884898-31.346939L645.624294 114.938776l-94.563265-81.084082a58.932245 58.932245 0 0 0-73.142857 0L382.727968 114.938776l-114.938776 98.115918-36.780408 31.346939-86.413061 73.665306-122.77551 104.489796H20.984294v569.260408h985.965714V422.870204z" fill="#00aaff" p-id="4088" data-spm-anchor-id="a313x.7781069.0.i47" class="selected"></path><path d="M1006.950008 1012.715102H20.984294a20.897959 20.897959 0 0 1-20.897959-20.897959V424.542041a20.166531 20.166531 0 0 1 3.239184-12.956735 20.897959 20.897959 0 0 1 6.060408-6.373877l207.621224-177.632653 36.675919-31.346939L463.812049 17.972245a79.725714 79.725714 0 0 1 100.728164 0l215.875918 184.006531 30.61551 26.122448 208.143674 177.632654A20.897959 20.897959 0 0 1 1027.221029 417.959184a20.27102 20.27102 0 0 1 0.626939 7.105306v566.752653a20.897959 20.897959 0 0 1-20.89796 20.897959zM41.882253 970.919184h944.169796V432.378776L783.759804 259.970612l-30.72-26.226939L537.477355 49.737143a39.497143 39.497143 0 0 0-46.497959 0L281.268376 228.519184l-36.780408 31.346938L41.882253 432.483265z" fill="#00aaff" p-id="4089" data-spm-anchor-id="a313x.7781069.0.i48" class="selected"></path><path d="M69.36307 183.275102h881.371428V786.808163H69.36307z" fill="#FFFFFF" p-id="4090"></path><path d="M971.841437 807.706122H48.360621V162.377143H971.841437z m-881.371429-41.795918H930.045519V204.173061H90.156539z" fill="#282D33" p-id="4091"></path><path d="M450.750825 147.017143H139.162253v579.082449h311.588572A60.917551 60.917551 0 0 1 512.086335 787.017143V208.039184a60.917551 60.917551 0 0 0-61.33551-61.022041z" fill="#FFFFFF" p-id="4092"></path><path d="M532.984294 787.017143h-41.795918a40.124082 40.124082 0 0 0-40.019592-40.019592H118.264294V126.119184h332.486531A81.92 81.92 0 0 1 532.984294 208.039184z m-372.924081-81.81551h290.690612a80.979592 80.979592 0 0 1 40.019592 10.448979V208.039184a40.124082 40.124082 0 0 0-40.019592-40.124082H160.060213z" fill="#282D33" p-id="4093"></path><path d="M574.780213 147.017143h311.066122v579.082449H574.780213a61.022041 61.022041 0 0 0-61.022041 60.917551V208.039184A61.022041 61.022041 0 0 1 574.780213 147.017143z" fill="#FFFFFF" p-id="4094"></path><path d="M534.238172 787.017143h-41.795919V208.039184A82.02449 82.02449 0 0 1 574.780213 126.119184h331.964081v620.878367H574.780213a40.124082 40.124082 0 0 0-40.542041 40.019592zM574.780213 167.915102a40.124082 40.124082 0 0 0-40.124082 40.124082v507.611428a81.71102 81.71102 0 0 1 40.124082-10.448979h290.168163V167.915102z" fill="#282D33" p-id="4095"></path><path d="M201.124702 237.191837z" fill="#FFFFFF" p-id="4096"></path><path d="M201.124702 216.293878h145.031837v41.795918H201.124702z" fill="#282D33" p-id="4097"></path><path d="M201.124702 316.186122z" fill="#FFFFFF" p-id="4098"></path><path d="M201.124702 295.288163h244.297143v41.795919H201.124702z" fill="#282D33" p-id="4099"></path><path d="M201.124702 393.926531z" fill="#FFFFFF" p-id="4100"></path><path d="M201.124702 373.028571h244.297143v41.795919H201.124702z" fill="#282D33" p-id="4101"></path><path d="M201.124702 471.562449z" fill="#FFFFFF" p-id="4102"></path><path d="M201.124702 450.66449h244.297143v41.795918H201.124702z" fill="#282D33" p-id="4103"></path><path d="M201.124702 549.302857z" fill="#FFFFFF" p-id="4104"></path><path d="M201.124702 528.404898h244.297143v41.795918H201.124702z" fill="#282D33" p-id="4105"></path><path d="M201.124702 626.938776z" fill="#FFFFFF" p-id="4106"></path><path d="M201.124702 606.040816h244.297143v41.795919H201.124702z" fill="#282D33" p-id="4107"></path><path d="M570.391641 316.186122z" fill="#FFFFFF" p-id="4108"></path><path d="M570.391641 295.288163h244.297143v41.795919H570.391641z" fill="#282D33" p-id="4109"></path><path d="M570.391641 393.926531z" fill="#FFFFFF" p-id="4110"></path><path d="M570.391641 373.028571h244.297143v41.795919H570.391641z" fill="#282D33" p-id="4111"></path><path d="M570.391641 471.562449z" fill="#FFFFFF" p-id="4112"></path><path d="M570.391641 450.66449h244.297143v41.795918H570.391641z" fill="#282D33" p-id="4113"></path><path d="M570.391641 549.302857z" fill="#FFFFFF" p-id="4114"></path><path d="M570.391641 528.404898h244.297143v41.795918H570.391641z" fill="#282D33" p-id="4115"></path><path d="M570.391641 626.938776z" fill="#FFFFFF" p-id="4116"></path><path d="M570.391641 606.040816h244.297143v41.795919H570.391641z" fill="#282D33" p-id="4117"></path><path d="M1006.11409 434.573061l-122.566531 104.489796-86.413061 73.142857-36.780408 31.346939-86.099592 73.142857H353.366335l-86.099592-73.142857-36.780408-31.346939-86.413061-73.142857-122.566531-104.489796H20.984294V1003.102041h986.488163V434.573061z" fill="#F8C44F" p-id="4118"></path><path d="M1028.370417 1024H0.086335V413.675102h28.630204l6.373878 5.01551 208.979591 178.259592 36.780409 31.346939 80.248163 68.440816h305.423673l331.859592-283.167347h29.988572zM41.882253 982.204082h944.692245V478.772245L681.882253 738.638367H345.73858l-91.951021-78.471836-36.780408-31.346939L41.882253 479.399184z" fill="#282D33" p-id="4119"></path><path d="M29.552457 994.429388l114.938776-97.59347 86.413061-74.396734c10.44898-8.672653 23.510204-20.062041 36.780408-31.346939l85.681633-73.142857z" fill="#F8C44F" p-id="4120"></path><path d="M43.136131 1010.311837l-27.062857-31.346939 114.938775-97.593469 86.308572-74.292245 36.780408-31.346939 85.681633-73.142857 27.167346 31.346939-85.577142 73.142857-36.884898 31.346938-86.308572 74.396735z" fill="#282D33" p-id="4121"></path><path d="M674.672457 717.322449l85.681633 73.142857c13.270204 11.493878 26.644898 22.883265 36.780408 31.346939l86.413061 74.396735L1006.845519 1003.102041z" fill="#F8C44F" p-id="4122"></path><path d="M661.109682 733.163102l27.250939-31.691755 332.047673 285.507918-27.250939 31.691755z" fill="#282D33" p-id="4123"></path></svg>