<?xml version="1.0" standalone="no"?><!DOCTYPE svg PUBLIC "-//W3C//DTD SVG 1.1//EN" "http://www.w3.org/Graphics/SVG/1.1/DTD/svg11.dtd"><svg t="1680230699901" class="icon" viewBox="0 0 1163 1024" version="1.1" xmlns="http://www.w3.org/2000/svg" p-id="5536" xmlns:xlink="http://www.w3.org/1999/xlink" width="227.1484375" height="200"><path d="M501.565504 573.030725h-45.07439v-15.550665a157.760366 157.760366 0 0 1-53.976583-33.805793l-1.577603-1.69029-150.999208-175.790122V134.006163h-1.352232l1.352232-25.354345V93.213839h0.901488v-1.577603h47.102738A99.501717 99.501717 0 0 1 397.443662 191.588696v128.123955h-45.07439V191.588696a54.427326 54.427326 0 0 0-54.31464-54.31464h-3.042522v71.217537l2.81715 16.902896-2.81715 0.901488v103.220354l139.279866 162.493177a114.939695 114.939695 0 0 0 50.257946 27.044634l17.240954 4.169381z" fill="#282D33" p-id="5537"></path><path d="M69.752844 205.787129H31.101555A8.564134 8.564134 0 0 0 22.537421 214.125891v62.315345a8.67682 8.67682 0 0 0 8.564134 8.789506h38.651289z" fill="#FFFFFF" p-id="5538"></path><path d="M69.752844 308.218681H31.101555A31.326701 31.326701 0 0 1 0.000225 276.89198V214.125891a31.214015 31.214015 0 0 1 31.10133-31.326701h38.651289v45.07439H45.074616v34.819967h24.678228zM1025.32992 308.105995h-21.635707v-45.07439h11.944713l38.313232-17.35364-38.313232-17.353641h-11.944713v-45.07439h21.635707l137.814948 62.428031-137.814948 62.42803z" fill="#282D33" p-id="5539"></path><path d="M780.914038 183.36262h192.016903v124.630689H780.914038zM101.079546 183.36262h250.61361v124.630689H101.079546z" fill="#F8C44F" p-id="5540"></path><path d="M272.474915 314.41641V338.080465L418.065196 507.109429a136.350031 136.350031 0 0 0 60.963113 33.805792v32.115504z" fill="#FFFFFF" p-id="5541"></path><path d="M501.565504 573.030725h-45.07439v-15.550665a157.760366 157.760366 0 0 1-53.976583-33.805793l-1.577603-1.69029-150.999208-175.790122v-47.666168l14.987235-5.521613 7.437274 21.184964v-22.537195l5.972357 5.070869 1.352232-3.831323 15.212606 5.29624v31.439388l139.392552 162.380491a114.939695 114.939695 0 0 0 50.257946 27.044634l17.240954 4.169381zM753.080602 573.030725h-45.07439V507.109429l9.014878-6.761159a111.784488 111.784488 0 0 0 45.07439-90.148781V175.023858l-2.253719-51.046747A28.058808 28.058808 0 0 0 732.459069 95.354873c-27.72075 0-27.72075 10.254424-27.72075 15.099921h-45.074391V97.94665a27.833436 27.833436 0 0 0-55.554186 0h-45.07439V72.817678a27.72075 27.72075 0 1 0-55.4415 0V101.439915h-45.074391A30.425213 30.425213 0 0 0 428.206934 75.296769a29.523726 29.523726 0 0 0-29.523726 29.523726v214.892156h-45.07439V104.820495A74.710802 74.710802 0 0 1 428.206934 30.222379a75.499604 75.499604 0 0 1 37.52443 10.141738 72.79514 72.79514 0 0 1 127.898582-4.507439 72.682454 72.682454 0 0 1 98.712915 22.537195A94.994278 94.994278 0 0 1 732.459069 50.280482a72.907826 72.907826 0 0 1 72.79514 72.795141l2.479091 50.821375v235.851747a155.957391 155.957391 0 0 1-54.427326 118.883705z" fill="#282D33" p-id="5542"></path><path d="M447.476236 611.456642H862.047941v412.543358H447.476236z" fill="#34CA9D" p-id="5543"></path><path d="M447.476236 611.456642H862.047941v412.543358H447.476236z" fill="#00aaff" p-id="5544" data-spm-anchor-id="a313x.7781069.0.i73" class="selected"></path><path d="M777.533459 681.885377h45.07439v45.074391h-45.07439z" fill="#282D33" p-id="5545"></path></svg>