<?xml version="1.0" standalone="no"?><!DOCTYPE svg PUBLIC "-//W3C//DTD SVG 1.1//EN" "http://www.w3.org/Graphics/SVG/1.1/DTD/svg11.dtd"><svg t="1680230638777" class="icon" viewBox="0 0 1024 1024" version="1.1" xmlns="http://www.w3.org/2000/svg" p-id="5046" xmlns:xlink="http://www.w3.org/1999/xlink" width="200" height="200"><path d="M511.833925 542.932562m-401.858928 0a401.858928 401.858928 0 1 0 803.717856 0 401.858928 401.858928 0 1 0-803.717856 0Z" fill="#00aaff" p-id="5047" data-spm-anchor-id="a313x.7781069.0.i64" class="selected"></path><path d="M755.064329 271.149024a105.752349 105.752349 0 0 0 75.61293-31.725705 131.132913 131.132913 0 0 0 0-185.278116 149.533822 149.533822 0 0 0-101.522255-46.213777C689.603625 6.979655 619.066808 7.825674 610.923877 7.825674c-31.091191 0-277.071156-0.846019-316.516782 0a149.322317 149.322317 0 0 0-101.310751 46.742538 131.132913 131.132913 0 0 0 0 185.278117 106.704121 106.704121 0 0 0 75.61293 31.725704 108.290406 108.290406 0 0 0 18.400909-1.692037V782.990396h-5.287618a31.725705 31.725705 0 0 0-31.725705 31.725704v42.30094a31.725705 31.725705 0 0 0 5.39337 17.660643 74.026645 74.026645 0 0 0-58.269544 72.228854v63.45141h629.226479v-63.45141a74.026645 74.026645 0 0 0-58.269544-72.228854 31.725705 31.725705 0 0 0 5.393369-17.660643v-42.30094a31.725705 31.725705 0 0 0-31.725704-31.725704h-5.287618V269.562739a117.808117 117.808117 0 0 0 18.506661 1.586285z" fill="#FFFFFF" p-id="5048"></path><path d="M747.132903 886.627698h-470.597955v-623.938862h42.30094v581.637922h385.996075v-581.637922h42.30094v623.938862z" fill="#282D33" p-id="5049"></path><path d="M752.42052 886.521946h-481.17319a63.45141 63.45141 0 0 0-63.451409 63.451409v52.876175h608.076009v-52.876175a63.45141 63.45141 0 0 0-63.45141-63.451409z" fill="#FFFFFF" p-id="5050"></path><path d="M837.0224 1024H186.645451v-74.026645a84.60188 84.60188 0 0 1 84.601879-84.601879h481.17319a84.60188 84.60188 0 0 1 84.60188 84.601879z m-608.076009-42.30094h565.775069v-31.725705a42.30094 42.30094 0 0 0-42.30094-42.300939h-481.17319a42.30094 42.30094 0 0 0-42.300939 42.300939z" fill="#282D33" p-id="5051"></path><path d="M260.672095 796.632449m21.15047 0l460.022721 0q21.15047 0 21.150469 21.15047l0 42.300939q0 21.15047-21.150469 21.15047l-460.022721 0q-21.15047 0-21.15047-21.15047l0-42.300939q0-21.15047 21.15047-21.15047Z" fill="#FFFFFF" p-id="5052"></path><path d="M741.845286 902.384798h-460.022721a42.30094 42.30094 0 0 1-42.300939-42.30094v-42.300939a42.30094 42.30094 0 0 1 42.300939-42.30094h460.022721a42.30094 42.30094 0 0 1 42.300939 42.30094v42.300939a42.30094 42.30094 0 0 1-42.300939 42.30094z m-460.022721-84.601879v42.300939h460.022721v-42.300939zM755.064329 285.214087a117.173603 117.173603 0 0 1-83.121346-34.369514 98.243933 98.243933 0 0 1 0-138.852835 82.698337 82.698337 0 0 1 117.173603 0 70.431065 70.431065 0 0 1 0 99.618713l-29.927915-29.927915a28.235877 28.235877 0 0 0 0-39.868635 41.666426 41.666426 0 0 0-57.317774 0 56.048745 56.048745 0 0 0 0 79.102757 75.295673 75.295673 0 0 0 106.386864 0A99.618713 99.618713 0 0 0 807.940504 80.477538 118.442631 118.442631 0 0 0 728.52049 42.723949H610.500867V0.423009c3.066818 0 77.516472-0.951771 119.500155 0a160.214809 160.214809 0 0 1 108.078902 50.232366 141.708148 141.708148 0 0 1 0 200.189198A117.067851 117.067851 0 0 1 755.064329 285.214087z" fill="#282D33" p-id="5053"></path><path d="M268.603522 285.214087a116.856346 116.856346 0 0 1-83.121347-34.369514 141.708148 141.708148 0 0 1 0-200.189198A160.214809 160.214809 0 0 1 294.19559 0.423009c42.30094-0.951771 308.691108 0 320.00661 0v42.30094H295.147361A118.125374 118.125374 0 0 0 215.727347 80.58329a99.407209 99.407209 0 0 0 0 140.43912 75.295673 75.295673 0 0 0 106.386863 0 55.942993 55.942993 0 0 0 0-79.102757 41.666426 41.666426 0 0 0-57.317773 0 28.024373 28.024373 0 0 0-8.248683 19.987194 27.601363 27.601363 0 0 0 8.248683 19.881442L234.657017 211.927708a70.642569 70.642569 0 0 1 0-99.724465 82.698337 82.698337 0 0 1 117.067851 0 97.926676 97.926676 0 0 1 0 138.852835A116.327584 116.327584 0 0 1 268.603522 285.214087z" fill="#282D33" p-id="5054"></path><path d="M418.771858 689.188062A29.927915 29.927915 0 0 1 388.843943 719.538986a29.927915 29.927915 0 0 1-29.927915-29.927915V315.459258A29.927915 29.927915 0 0 1 388.843943 285.954353a29.927915 29.927915 0 0 1 29.927915 29.927915zM535.099442 689.188062A29.927915 29.927915 0 0 1 505.171527 719.538986a29.927915 29.927915 0 0 1-29.927914-29.927915V262.583084A29.927915 29.927915 0 0 1 505.171527 233.078178a29.927915 29.927915 0 0 1 29.927915 29.927915zM651.427027 689.188062A29.927915 29.927915 0 0 1 621.499112 719.538986a29.927915 29.927915 0 0 1-29.927915-29.927915V315.459258A29.927915 29.927915 0 0 1 621.499112 285.954353a29.927915 29.927915 0 0 1 29.927915 29.927915z" fill="#F8C44F" p-id="5055"></path><path d="M337.765558 137.901064z" fill="#FFFFFF" p-id="5056"></path><path d="M337.765558 116.327584h345.492926v42.30094H337.765558z" fill="#282D33" p-id="5057"></path></svg>