<?xml version="1.0" standalone="no"?><!DOCTYPE svg PUBLIC "-//W3C//DTD SVG 1.1//EN" "http://www.w3.org/Graphics/SVG/1.1/DTD/svg11.dtd"><svg t="1680230455931" class="icon" viewBox="0 0 1024 1024" version="1.1" xmlns="http://www.w3.org/2000/svg" p-id="3066" xmlns:xlink="http://www.w3.org/1999/xlink" width="200" height="200"><path d="M591.890297 1024H414.876376L404.238521 893.579888a393.600665 393.600665 0 0 1-101.05963-44.466237l-96.591731 81.698732L81.379597 805.392063l85.102846-100.102223a394.770829 394.770829 0 0 1-39.891959-102.974444L0 591.783919V414.876376l130.632869-10.637855a394.66445 394.66445 0 0 1 44.572616-100.953252L93.506753 206.374403 218.607937 81.273218l100.102223 85.102847a392.430501 392.430501 0 0 1 102.974444-39.891959L432.216081 0h176.907543l10.637855 130.739248a390.090172 390.090172 0 0 1 101.05963 44.572616l96.591731-81.805111 125.313942 125.101184-85.102847 100.102223a390.728444 390.728444 0 0 1 39.785581 102.974444l126.271348 10.637856v176.694785L893.579888 619.974236a394.66445 394.66445 0 0 1-44.572616 100.953252l81.805111 96.698109-125.313941 125.101185-100.102223-85.102847a392.430501 392.430501 0 0 1-102.974445 39.891959z m-138.292125-42.551423H553.168502l9.893206-119.037607 15.850405-2.978599a354.240598 354.240598 0 0 0 117.973821-45.530023l13.084563-8.084771 93.506752 79.145648L872.304176 815.178891l-77.124454-91.166425 9.148556-13.403698a349.559942 349.559942 0 0 0 51.061707-115.527114l3.616871-14.999377 122.016207-10.637856v-98.08103l-119.037607-9.999585-3.084978-15.850405a349.772699 349.772699 0 0 0-45.530023-117.973821l-7.978392-13.084562 79.039269-93.506753-69.784334-69.677955-91.060046 77.124454-13.403698-9.042177a351.581134 351.581134 0 0 0-115.633493-51.168087l-14.999377-3.616871L569.976314 42.551423h-98.612923l-9.893206 119.037607-15.956784 2.978599a355.091627 355.091627 0 0 0-117.973821 45.530023l-13.084562 8.084771-93.400374-79.145648-69.784334 69.784334 77.124454 91.166425-9.042177 13.403698a352.006649 352.006649 0 0 0-51.168087 115.527114l-3.510492 14.999377L42.551423 454.130064V553.168502l119.037607 9.999584 3.084978 15.850406a349.772699 349.772699 0 0 0 45.530023 117.97382l7.978392 13.084563-79.039269 93.506753L208.821109 872.304176l91.166425-77.124454 13.403698 9.148556a351.049242 351.049242 0 0 0 115.633493 51.061707l14.892998 3.616871z" fill="#282D33" p-id="3067"></path><path d="M512 784.009973a272.329109 272.329109 0 0 1-271.903594-272.009973h42.551423a229.45855 229.45855 0 1 0 458.810721 0h42.551423A272.329109 272.329109 0 0 1 512 784.009973zM282.647829 512h-42.551423c0-7.552878 0-15.318512 0.957407-22.977769l42.551423 3.510493c-0.74465 6.489092-0.957407 13.084563-0.957407 19.467276zM290.307085 453.066279l-41.168502-10.637856a271.797216 271.797216 0 0 1 16.169541-44.572616l38.615416 17.977977a223.394972 223.394972 0 0 0-13.616455 37.232495z m443.38583 0A223.394972 223.394972 0 0 0 719.970081 414.876376l38.615417-17.977976a272.116352 272.116352 0 0 1 16.275919 44.572616zM323.922709 380.835238l-34.892167-24.467068A285.094536 285.094536 0 0 1 319.135674 319.986703l30.105132 30.105132a229.245793 229.245793 0 0 0-25.318097 30.743403z m376.048203 0a235.096613 235.096613 0 0 0-25.743611-30.637025l30.105132-30.105132a269.031373 269.031373 0 0 1 30.424268 36.381467z m-319.135674-56.274257l-24.467068-34.785789A275.839601 275.839601 0 0 1 396.792022 265.946395l18.084354 38.189903a234.032828 234.032828 0 0 0-34.573031 20.105547z m263.286931 0a235.096613 235.096613 0 0 0-34.67941-20.105548L626.888843 265.946395a270.946187 270.946187 0 0 1 41.062123 23.722419z m-191.481404-33.722003l-10.637856-41.062124a269.776023 269.776023 0 0 1 46.806565-8.297527l3.72325 42.551423a235.734885 235.734885 0 0 0-40.104717 6.382714z m118.824849 0a232.649907 232.649907 0 0 0-39.360067-6.914607l3.616871-42.551423a276.584251 276.584251 0 0 1 46.806566 8.191149zM784.009973 512h-42.551423c0-6.595471 0-13.084563-0.851029-19.467276l42.551424-3.616871c0.531893 7.552878 0.851028 15.318512 0.851028 23.084147z" fill="#282D33" p-id="3068"></path><path d="M372.963225 608.698109a167.120715 167.120715 0 0 1-30.317889-96.698109 169.461043 169.461043 0 1 1 338.815707 0 167.227093 167.227093 0 0 1-30.424268 96.698109 90.528153 90.528153 0 0 0-84.145439-57.231664H457.4278a90.74091 90.74091 0 0 0-84.464575 57.231664z" fill="#00aaff" p-id="3069" data-spm-anchor-id="a313x.7781069.0.i26" class="selected"></path><path d="M585.082069 487.63931A73.188448 73.188448 0 1 1 512 414.876376 73.082069 73.082069 0 0 1 585.082069 487.63931z" fill="#FFFFFF" p-id="3070"></path><path d="M512 581.997091A94.357781 94.357781 0 1 1 606.357781 487.63931a94.46416 94.46416 0 0 1-94.357781 94.357781z m0-146.164139A51.806358 51.806358 0 1 0 563.806358 487.63931 51.912736 51.912736 0 0 0 512 436.152088z" fill="#282D33" p-id="3071"></path><path d="M661.249117 726.352795h-42.551423v-84.358197a51.806358 51.806358 0 0 0-51.806358-51.806358H457.4278a51.806358 51.806358 0 0 0-51.806358 51.806358v84.358197h-42.551423v-84.358197A94.46416 94.46416 0 0 1 457.4278 547.636817h109.463536a94.46416 94.46416 0 0 1 94.357781 94.357781z" fill="#282D33" p-id="3072"></path></svg>