<?xml version="1.0" standalone="no"?><!DOCTYPE svg PUBLIC "-//W3C//DTD SVG 1.1//EN" "http://www.w3.org/Graphics/SVG/1.1/DTD/svg11.dtd"><svg t="1680230626254" class="icon" viewBox="0 0 1024 1024" version="1.1" xmlns="http://www.w3.org/2000/svg" p-id="4859" xmlns:xlink="http://www.w3.org/1999/xlink" width="200" height="200"><path d="M556.793594 895.051852H215.05025A33.723323 33.723323 0 0 1 181.326927 861.021021V54.326326A33.723323 33.723323 0 0 1 215.05025 20.500501h567.658859a33.723323 33.723323 0 0 1 33.723323 33.825825V533.013013z" fill="#FFFFFF" p-id="4860"></path><path d="M556.793594 915.552352H215.05025A54.326326 54.326326 0 0 1 160.826426 861.021021V54.326326A54.326326 54.326326 0 0 1 215.05025 0h567.658859a54.326326 54.326326 0 0 1 54.223824 54.326326V533.013013h-41.001001V54.326326A13.325325 13.325325 0 0 0 782.709109 41.001001H215.05025a13.325325 13.325325 0 0 0-13.222823 13.325325V861.021021a13.325325 13.325325 0 0 0 13.222823 13.325325h341.743344z" fill="#282D33" p-id="4861"></path><path d="M229.605606 119.927928h538.65065v701.424625H229.605606z" fill="#00aaff" p-id="4862" data-spm-anchor-id="a313x.7781069.0.i61" class="selected"></path><path d="M524.402803 78.311912z" fill="#FFFFFF" p-id="4863"></path><path d="M473.356557 57.811411h51.046246v41.001001h-51.046246z" fill="#282D33" p-id="4864"></path><path d="M921.18999 1024v-51.866266a107.32012 107.32012 0 0 0 43.256056-86.102102V699.272072l-2.05005-41.001001a39.975976 39.975976 0 0 0-39.975976-40.078478c-22.038038 0-39.975976 7.892693-39.975976 30.033233v-10.25025a40.078478 40.078478 0 0 0-80.054454 0v-20.500501a40.078478 40.078478 0 0 0-80.054455 0V409.497497a41.001001 41.001001 0 1 0-82.822022 0V813.86987l-0.82002-19.680481v-82.104504a61.501502 61.501502 0 0 0-61.501501-61.501502h-20.500501c-0.922523 0 0.82002 0 0 0v178.764365l115.827828 137.455856a225.505506 225.505506 0 0 0 48.586186 23.575575v33.620821z" fill="#FFFFFF" p-id="4865"></path><path d="M941.69049 1024h-41.001001v-62.219019l8.200201-6.15015a86.307107 86.307107 0 0 0 35.055856-69.599199V699.272072l-1.947548-40.283483a19.885485 19.885485 0 0 0-19.577978-20.500501c-19.475475 0-19.475475 6.15015-19.475475 9.532733h-41.001001v-10.25025a19.577978 19.577978 0 0 0-39.053454 0h-41.001001v-20.500501a19.577978 19.577978 0 0 0-39.053453 0v22.448048h-41.001001V409.18999a20.500501 20.500501 0 1 0-41.821021 0v404.372372l-41.001001 0.922523-0.82002-19.680481v-82.719519a41.001001 41.001001 0 0 0-41.001001-41.001001v54.018819l2.87007 14.657858-2.87007 1.23003v80.361962l108.96016 129.768168A183.581982 183.581982 0 0 0 725.82022 970.493694l15.682883 3.792592v49.713714h-41.001001V1004.524525a304.227427 304.227427 0 0 1-39.053453-20.500501l-2.665065-1.64004-123.003003-145.861061V729.305305l-1.947548-14.657858 1.947548-0.82002v-44.691091h-1.23003L536.190591 645.765766v-13.632833h0.82002v-1.742543h39.975976a82.002002 82.002002 0 0 1 41.001001 11.377778V410.01001a61.501502 61.501502 0 1 1 123.823023 0v150.781181a58.528929 58.528929 0 0 1 19.577978-3.28008 60.578979 60.578979 0 0 1 51.251251 27.573173 60.373974 60.373974 0 0 1 78.516917 17.835436 80.156957 80.156957 0 0 1 30.750751-5.432633 60.578979 60.578979 0 0 1 60.476476 60.578979l2.05005 40.180981v187.784585a127.103103 127.103103 0 0 1-43.256056 95.839839z" fill="#282D33" p-id="4866"></path><path d="M149.243644 488.321922l0.512512-1.025025 136.020821 2.05005v25.523123a67.959159 67.959159 0 0 1-69.086687 66.831632h-14.862863l-20.5005 63.141541c42.743544 31.468268 71.751752 91.637237 71.751752 160.723924a214.332733 214.332733 0 0 1-44.383584 134.380781H89.074675V624.65025z" fill="#FFFFFF" p-id="4867"></path><path d="M217.715315 960.038438H68.574174V620.345145l68.369169-153.753754 168.104104 2.46006 1.23003 18.962963v27.060661a88.664665 88.664665 0 0 1-88.459659 87.024625h-1.332533l-11.787788 35.260861C246.928529 675.491491 272.759159 738.018018 272.759159 805.157157A233.705706 233.705706 0 0 1 223.557958 952.453253z m-108.14014-41.001001h88.152152a198.444845 198.444845 0 0 0 34.030831-113.88028c0-60.168969-24.293093-115.417818-63.346546-144.221021l-11.992793-8.815215 30.750751-92.252252 30.135735 0.922522a47.663664 47.663664 0 0 0 47.868669-46.638638v-5.022623l-102.502503-1.537538-53.096296 121.465466z" fill="#282D33" p-id="4868"></path><path d="M39.053453 916.372372h316.732733v107.627628H39.053453z" fill="#F8C44F" p-id="4869"></path><path d="M473.151552 344.613413h-205.005005v-184.504504h205.005005z m-164.004004-41.001001h123.003003v-102.502502h-123.003003zM265.583984 385.614414h311.812613v41.001001H265.583984zM337.335736 467.616416h240.060861v41.001001H337.335736zM337.335736 549.618418h240.060861v41.001001H337.335736zM265.583984 631.62042h232.373173v41.001001H265.583984z" fill="#282D33" p-id="4870"></path></svg>