<?xml version="1.0" standalone="no"?><!DOCTYPE svg PUBLIC "-//W3C//DTD SVG 1.1//EN" "http://www.w3.org/Graphics/SVG/1.1/DTD/svg11.dtd"><svg t="1680230608365" class="icon" viewBox="0 0 1106 1024" version="1.1" xmlns="http://www.w3.org/2000/svg" p-id="4671" xmlns:xlink="http://www.w3.org/1999/xlink" width="216.015625" height="200"><path d="M549.530943 1024H537.32826a373.873823 373.873823 0 1 1 12.202683 0z m0-707.550571a331.010615 331.010615 0 1 0 10.869618 0z" fill="#282D33" p-id="4672"></path><path d="M869.159223 566.860805L839.831764 617.312237l-51.27178 95.775686-28.712197-61.526136-46.34969 29.122371L684.990987 625.515722l-26.968956 32.198678-13.023032-3.691568-41.017425-17.637493 6.767875 43.991188 31.788504 13.740837-60.705788 135.562588-25.123172 15.073903-21.123974-51.887041L522.972161 706.627679l-42.145404-3.076307-17.227318-32.403765 25.840978-64.807531 35.480072-7.178049 21.534147 15.176447 52.297217-11.074705L543.480873 570.039656l-47.580212-10.254357-1.948328-14.356098 46.862408-25.225716-18.662928-30.763068 48.09293-41.017425 49.220909 18.970559 83.573002-23.174845s34.454636-16.919688 73.011016-35.582615a331.523333 331.523333 0 0 1 93.109553 158.224714zM350.083717 386.281594l-19.893451 31.891048-34.55718 58.654917a5.127178 5.127178 0 0 0 0 5.127178L317.885039 519.383136a5.332265 5.332265 0 0 0 4.30683 2.461046 4.819547 4.819547 0 0 0 4.306829-2.255958l20.508712-30.763069 37.530944 48.605648-77.625476 65.115161-43.581013 2.461046a5.229722 5.229722 0 0 0-4.511917 3.281394l-10.254356 25.840977a5.229722 5.229722 0 0 0 0.615261 4.922091l27.686762 37.018226-45.324254-22.662127-12.612858-16.304427a330.190266 330.190266 0 0 1 131.153214-250.82155zM328.139395 790.200681l-27.481674-57.834568 32.608852-67.781294L420.4286 748.567995l-80.804326 153.097537-14.356099-35.787703 2.87122-73.318646a4.61446 4.61446 0 0 0 0-2.358502zM413.660725 480.724214l-34.864811-79.163629a304.65692 304.65692 0 0 1 105.10715-31.685961l-18.252754 71.780493z" fill="#00aaff" p-id="4673" data-spm-anchor-id="a313x.7781069.0.i58" class="selected"></path><path d="M552.812337 170.017224l-148.995794 1.43561c-63.782095 1.743241-115.156419 38.556379-114.438614 82.034849l1.230523 132.17865c0.717805 42.863208 22.149409 75.16443 111.977568 116.592029a708.883637 708.883637 0 0 0 153.815342 53.117564z" fill="#FFFFFF" p-id="4674"></path><path d="M552.402163 574.961746a725.188063 725.188063 0 0 1-158.429802-54.553174c-89.417985-41.017424-123.052273-77.830563-123.872621-134.947326l-1.230523-132.281194c-0.820348-55.168436 58.142199-100.082516 134.332065-102.543561l149.405968-1.43561 20.508712 20.508712 3.691569 384.845985zM532.508712 190.731023l-128.487082 1.230523c-51.27178 1.43561-94.647707 29.224915-94.134989 60.705788l1.230523 132.281194c0 27.584218 8.408572 55.886241 100.082516 98.236731a742.723012 742.723012 0 0 0 124.590426 45.836972z" fill="#282D33" p-id="4675"></path><path d="M552.504707 170.017224l148.995794-1.43561c63.884638 0 115.874224 36.300421 115.976767 79.266173s0.820348 88.187462 1.333066 132.281194-20.508712 75.472061-109.72161 118.6429a707.550571 707.550571 0 0 1-152.892449 56.091327z" fill="#FFFFFF" p-id="4676"></path><path d="M560.708191 574.859203l-25.020628-19.790907-3.691569-384.845985 20.508713-20.508712 148.995794-1.43561c76.60004 0.615261 136.48548 44.401362 136.690566 99.774885l1.333067 132.076107c0 57.116763-32.608852 94.340076-121.309033 137.305828a722.009213 722.009213 0 0 1-157.50691 57.424394z m12.510315-384.538354l3.281394 338.393751a732.5712 732.5712 0 0 0 123.052273-48.298017c90.853595-43.991188 98.339275-72.498298 98.236731-100.082515l-1.333066-132.17865c0-31.583417-43.888644-58.552373-95.570599-58.962548z" fill="#282D33" p-id="4677"></path><path d="M554.863208 404.944522L56.911676 218.212698l494.259964-196.268376 497.951532 186.731825z" fill="#FFFFFF" p-id="4678"></path><path d="M555.068296 426.888844L0 218.827959 550.966553 0l555.170839 208.163429z m-440.937313-209.188864l440.937313 165.197677L992.211496 209.188864l-440.937312-165.197676z" fill="#282D33" p-id="4679"></path><path d="M835.730022 482.980172l-1.127979-183.655517-303.939115-114.02844 14.356099-38.351292 330.497897 123.872622 1.230522 211.95754-41.017424 0.205087z" fill="#F8C44F" p-id="4680"></path><path d="M607.262968 162.223913c0 15.278991-24.097737 27.789305-54.040456 28.096936s-54.450631-11.79251-54.655718-26.968956 24.097737-27.686761 54.040456-27.994392 54.553174 11.79251 54.655718 26.866412z" fill="#FFFFFF" p-id="4681"></path><path d="M552.197076 210.829561c-42.658121 0-73.831364-19.893451-74.138995-47.272581s30.763068-48.298017 74.344082-48.708192H553.735229c42.658121 0 73.72882 19.790907 74.036451 47.272582s-30.763068 48.298017-74.344081 48.708191z m-30.763068-47.682755a63.06429 63.06429 0 0 0 30.763068 6.665331v20.508712l0.820348-20.508712a61.526137 61.526137 0 0 0 30.763069-7.280593 61.526137 61.526137 0 0 0-30.763069-6.665331 63.987182 63.987182 0 0 0-31.378329 7.280593z" fill="#282D33" p-id="4682"></path><path d="M920.32846 588.907671v-88.905268c0-28.096936-27.276587-50.759063-61.526137-50.759062s-61.526137 22.662127-61.526136 50.759062v88.905268z" fill="#F8C44F" p-id="4683"></path></svg>