<?xml version="1.0" standalone="no"?><!DOCTYPE svg PUBLIC "-//W3C//DTD SVG 1.1//EN" "http://www.w3.org/Graphics/SVG/1.1/DTD/svg11.dtd"><svg t="1686213184697" class="icon" viewBox="0 0 1024 1024" version="1.1" xmlns="http://www.w3.org/2000/svg" p-id="2634" xmlns:xlink="http://www.w3.org/1999/xlink" width="200" height="200"><path d="M604.2 205.9c16.2 8.4 30.4 22.7 42.8 41.5 20.1 31.1 32.4 75.8 35 126.3 1.9 40.8-2.6 82.9-13 119.8h154.2c36.3 0 67.4 9.1 90.7 25.9 24 17.5 37.6 42.8 38.2 70.6v0.6c0 21.4-8.4 47.3-20.7 64.1 13.6 15.5 20.7 36.3 20.7 61.5 0 29.8-20.7 57.7-41.5 72.5 5.2 11.7 7.1 25.3 7.1 34.3 0 33.7-20.1 60.2-55.1 74.5 3.2 7.8 4.5 16.2 4.5 26.6 0 31.7-13 57.7-37.6 74.5-24 16.8-58.3 25.3-101.7 25.3h-246c-27.2 0-57.7-5.8-80.3-14.9-9.1-3.9-17.5-7.8-23.3-11-1.3-0.6-3.2-1.3-4.5-1.9-1.3 0.6-1.9 1.9-3.2 2.6-1.9 1.3-3.9 3.2-5.8 4.5-14.3 10.4-29.8 20.1-48.6 20.7h-66.7c-28.5 0-51.8-9.1-68-26.6-14.9-16.2-24-39.5-25.9-68.7l-30.4-324.5v-1.3c0-30.4 9.1-57.6 25.9-77.7 17.5-20.7 42.1-31.7 69.3-31.7H338c16.2 0 42.8-5.2 77.1-30.4 24-18.1 38.9-36.3 42.1-42.1 11-26.6 21.4-55.7 21.4-125 0-8.4 0-34.3 11-57 9.1-20.1 29.8-43.4 72.6-43.4 14.8 0 28.4 3.9 42 10.4z" fill="#e6e6e6" p-id="2635" data-spm-anchor-id="a313x.7781069.0.i1" class="selected"></path><path d="M616.7 144.2a2.3 12.2 0 1 0 4.6 0 2.3 12.2 0 1 0-4.6 0Z" fill="#F07FFD" p-id="2636"></path><path d="M627.571704 142.656012a12.2 2.3 60 1 0 3.983717-2.3 12.2 2.3 60 1 0-3.983717 2.3Z" fill="#F07FFD" p-id="2637"></path><path d="M636.311797 135.919689a12.2 2.3 30 1 0 2.3-3.983717 12.2 2.3 30 1 0-2.3 3.983717Z" fill="#F07FFD" p-id="2638"></path><path d="M628.3 123.4a12.2 2.3 0 1 0 24.4 0 12.2 2.3 0 1 0-24.4 0Z" fill="#F07FFD" p-id="2639"></path><path d="M627.328131 118.880268a2.3 12.2 60 1 0 21.13102-12.2 2.3 12.2 60 1 0-21.13102 12.2Z" fill="#F07FFD" p-id="2640"></path><path d="M624.189866 115.445957a2.3 12.2 30 1 0 12.2-21.131019 2.3 12.2 30 1 0-12.2 21.131019Z" fill="#F07FFD" p-id="2641"></path><path d="M617.4 101.9a2.3 12.2 0 1 0 4.6 0 2.3 12.2 0 1 0-4.6 0Z" fill="#F07FFD" p-id="2642"></path><path d="M607.088802 105.649823a12.2 2.3 60 1 0 3.983717-2.3 12.2 2.3 60 1 0-3.983717 2.3Z" fill="#F07FFD" p-id="2643"></path><path d="M600.042483 114.130839a12.2 2.3 30 1 0 2.3-3.983717 12.2 2.3 30 1 0-2.3 3.983717Z" fill="#F07FFD" p-id="2644"></path><path d="M586 122.6a12.2 2.3 0 1 0 24.4 0 12.2 2.3 0 1 0-24.4 0Z" fill="#F07FFD" p-id="2645"></path><path d="M590.235205 139.41267a2.3 12.2 60 1 0 21.13102-12.2 2.3 12.2 60 1 0-21.13102 12.2Z" fill="#F07FFD" p-id="2646"></path><path d="M602.351017 151.801873a2.3 12.2 30 1 0 12.2-21.131019 2.3 12.2 30 1 0-12.2 21.131019Z" fill="#F07FFD" p-id="2647"></path><path d="M367.4 187.6m-14.8 0a14.8 14.8 0 1 0 29.6 0 14.8 14.8 0 1 0-29.6 0Z" fill="#2C65AF" p-id="2648"></path><path d="M737.5 164.8c2.3 0 4.2 1.9 4.2 4.2v45.5c0 2.3-1.9 4.2-4.2 4.2s-4.2-1.9-4.2-4.2V169c0-2.4 1.9-4.2 4.2-4.2z" fill="#EF8218" p-id="2649"></path><path d="M714.7 187.5h45.5c2.3 0 4.2 1.9 4.2 4.2 0 2.3-1.9 4.2-4.2 4.2h-45.5c-2.3 0-4.2-1.9-4.2-4.2 0.1-2.4 1.9-4.2 4.2-4.2z" fill="#EF8218" p-id="2650"></path><path d="M270.2 222.6c5.9-3 8.8-9 6.6-13.3l-43.4-84.1c-2.2-4.3-8.8-5.3-14.7-2.3-5.9 3-8.8 9-6.6 13.3l43.4 84.1c2.2 4.3 8.8 5.3 14.7 2.3z" fill="#7CCBE2" p-id="2651"></path><path d="M294.3 147c-3-5.9-9-8.8-13.3-6.6l-84.1 43.4c-4.3 2.2-5.3 8.8-2.3 14.7s9 8.8 13.3 6.6l84.1-43.4c4.3-2.2 5.3-8.8 2.3-14.7z" fill="#7CCBE2" p-id="2652"></path><path d="M442.8 8.2c20.8 0 37.7 16.8 37.7 37.4S463.6 83 442.8 83c-20.8 0-37.7-16.8-37.7-37.4S422 8.2 442.8 8.2z m0 64.8c15.3 0 27.8-12.3 27.8-27.5S458.1 18 442.8 18 415 30.3 415 45.5 427.5 73 442.8 73z" fill="#E62A52" p-id="2653"></path><path d="M674 1006.1h-81.3c-8.3 0-15-6.7-15-15s6.7-15 15-15H674c40.5 0 71.8-7.6 93.1-22.5l0.2-0.1c20.3-13.9 31-35.4 31-62.1 0-8.8-1-15.2-3.4-20.8l-5.8-14 14-5.7c29.5-12 45.7-33.5 45.7-60.6 0-7-1.5-18.6-5.8-28.2l-5-11.2 9.9-7.1c17.5-12.6 35.2-36.1 35.2-60.4 0-21.4-5.7-38.8-17-51.7l-7.9-9 7.1-9.7c10.5-14.4 17.8-37.1 17.8-55.3v-0.5c-0.6-23.2-12-44-32.1-58.7-20.8-15.1-49.2-23-81.8-23h-174l5.3-19.1c9.9-35.1 14.3-76 12.4-115.1-2.5-47.9-14-90.1-32.6-118.9-11.1-17-23.5-29.2-36.8-36.2-12.7-6-23.9-8.8-35.4-8.8-35.8 0-51.8 18.8-58.9 34.6l-0.2 0.4c-9.5 19.6-9.5 42.8-9.5 50.5 0 70.6-10.7 102.1-22.5 130.8l-0.3 0.8-0.4 0.7c-4.4 7.9-20.8 27.6-46.2 46.8l-0.2 0.1c-37.5 27.6-67.4 33.4-86 33.4H166.2c-22.9 0-43.5 9.4-57.8 26.4C93.8 519.3 86 542.9 86 570v0.6l3.5 37.7c0.8 8.2-5.3 15.6-13.5 16.3-8.2 0.8-15.6-5.3-16.3-13.5L56 572v-2c0-34.2 10.2-64.4 29.4-87.4 20.2-23.9 48.9-37.1 80.8-37.1h117.9c14 0 37.2-4.8 68.1-27.5 21.4-16.2 34.6-32.1 37.6-36.8 10.9-26.4 19.8-53.9 19.8-118.3 0-9.3 0-37.6 12.4-63.4 6.5-14.2 16.3-26.3 28.5-35.1 15.7-11.3 35.1-17 57.6-17 16 0 31.8 3.9 48.6 11.8l0.5 0.2c18 9.4 34.3 25 48.4 46.5 21.4 33.5 34.7 81 37.4 134.1 1.7 35.4-1.4 72.2-8.7 105.6h135c39 0 73.4 9.9 99.5 28.8 27.9 20.4 43.7 49.6 44.4 82.4v1c0 20.6-6.8 44.7-17.4 63.4 11.6 17.1 17.4 38 17.4 62.3 0 32.2-19.3 60.3-38.7 77.5 4 13.5 4.4 25.4 4.4 29.4 0 35.3-18.8 64.9-52.1 82.6 1.1 5.6 1.6 11.7 1.6 18.4 0 36.5-15.6 67.4-44 86.8-26.6 18.5-63.7 27.9-110.4 27.9z" fill="" p-id="2654"></path><path d="M91.7 808.1c-7.7 0-14.2-5.8-14.9-13.6l-12-128.4c-0.8-8.2 5.3-15.6 13.5-16.3 8.3-0.8 15.6 5.3 16.3 13.5l12 128.4c0.8 8.2-5.3 15.6-13.5 16.3-0.4 0.1-0.9 0.1-1.4 0.1z" fill="" p-id="2655"></path><path d="M502.1 1006.1h-74.2c-28.8 0-60.9-6-85.9-16l-0.3-0.1c-8-3.4-14.7-6.5-19.9-9.2-0.7 0.6-1.6 1.2-2.5 1.8-16.2 11.7-34.2 22.7-56.7 23.4h-67.2c-32.7 0-60-10.8-79-31.4-17.4-18.9-27.7-45.7-29.9-77.7L82.7 857c-0.8-8.2 5.3-15.6 13.5-16.3 8.2-0.8 15.6 5.3 16.3 13.5l3.8 40.7c1.7 25.1 9.3 45.7 22 59.5 13.3 14.4 32.5 21.7 57 21.7h66.4c13.6-0.5 25.8-7.5 40-17.9l0.5-0.4c0.3-0.2 1.1-0.8 1.6-1.3 1.1-0.9 2.4-2 3.9-3 1-1 2.7-2.5 5.1-3.7l6.7-3.4 6.7 3.4c0.3 0.1 0.7 0.3 1.1 0.5 1 0.4 2.2 0.9 3.4 1.5l0.6 0.3c4.8 2.7 12.3 6.2 21.8 10.3 21.3 8.5 49.9 13.8 74.6 13.8h74.2c8.3 0 15 6.7 15 15s-6.5 14.9-14.8 14.9z" fill="" p-id="2656"></path><path d="M320.7 970c-7.9 0-14.5-6.2-15-14.2l-26.5-495c-0.4-8.3 5.9-15.3 14.2-15.8 8.3-0.4 15.3 5.9 15.8 14.2l26.5 495c0.4 8.3-5.9 15.3-14.2 15.8h-0.8z" fill="" p-id="2657"></path><path d="M188.4 628.7c-7.9 0-14.5-6.2-15-14.2l-2.8-49.5c-0.5-8.3 5.9-15.3 14.1-15.8 8.3-0.5 15.3 5.9 15.8 14.1l2.8 49.5c0.5 8.3-5.9 15.3-14.1 15.8-0.3 0.1-0.5 0.1-0.8 0.1zM200.2 842.3c-7.9 0-14.5-6.2-15-14.2l-8.1-145.7c-0.5-8.3 5.9-15.3 14.1-15.8 8.3-0.5 15.3 5.9 15.8 14.1l8.1 145.7c0.5 8.3-5.9 15.3-14.1 15.8-0.2 0-0.5 0.1-0.8 0.1z" fill="#FFFFFF" p-id="2658"></path></svg>