<?xml version="1.0" standalone="no"?><!DOCTYPE svg PUBLIC "-//W3C//DTD SVG 1.1//EN" "http://www.w3.org/Graphics/SVG/1.1/DTD/svg11.dtd"><svg t="1680230590774" class="icon" viewBox="0 0 1024 1024" version="1.1" xmlns="http://www.w3.org/2000/svg" p-id="4299" xmlns:xlink="http://www.w3.org/1999/xlink" width="200" height="200"><path d="M594.426116 876.539001v-41.655649a213.485203 213.485203 0 0 0 0-426.970406v-41.655649a255.140852 255.140852 0 0 1 0 510.281704z" fill="#282D33" p-id="4300"></path><path d="M610.046985 798.434659h78.104342v98.932167h-78.104342z" fill="#FFFFFF" p-id="4301"></path><path d="M708.979152 897.366826h-41.65565v-78.104343h-36.448693v78.104343h-41.655649v-119.759992h119.759992v119.759992zM580.575613 680.340893H417.389606V0H580.575613z m-121.530357-41.655649H538.919963V41.655649h-79.874707z" fill="#282D33" p-id="4302"></path><path d="M396.561782 161.415641H601.403437v430.406997H396.561782z" fill="#00aaff" p-id="4303" data-spm-anchor-id="a313x.7781069.0.i52" class="selected"></path><path d="M396.561782 138.817451H601.403437v41.65565H396.561782zM396.561782 76.333977H601.403437v41.65565H396.561782zM309.813892 777.606834h378.337435v41.655649H309.813892zM827.072918 1024H174.433032V937.25211a52.069562 52.069562 0 0 1 52.069561-52.069561h548.500763a52.069562 52.069562 0 0 1 52.069562 52.069561zM216.088681 982.344351h569.328587V937.25211a10.413912 10.413912 0 0 0-10.413912-10.413912H226.502593a10.413912 10.413912 0 0 0-10.413912 10.413912z" fill="#282D33" p-id="4304"></path><path d="M689.921692 388.751348a95.495576 95.495576 0 1 1-95.495576-95.391437 95.495576 95.495576 0 0 1 95.495576 95.391437z" fill="#FFFFFF" p-id="4305"></path><path d="M594.426116 505.074748A116.323401 116.323401 0 1 1 710.749517 388.751348 116.42754 116.42754 0 0 1 594.426116 505.074748z m0-190.887013a74.667751 74.667751 0 1 0 74.667752 74.563613 74.667751 74.667751 0 0 0-74.667752-74.563613z" fill="#282D33" p-id="4306"></path><path d="M632.645174 388.751348a38.219058 38.219058 0 1 1-38.219058-38.11492A38.219058 38.219058 0 0 1 632.645174 388.751348z" fill="#F8C44F" p-id="4307"></path></svg>