<?xml version="1.0" standalone="no"?><!DOCTYPE svg PUBLIC "-//W3C//DTD SVG 1.1//EN" "http://www.w3.org/Graphics/SVG/1.1/DTD/svg11.dtd"><svg t="1686109762419" class="icon" viewBox="0 0 1024 1024" version="1.1" xmlns="http://www.w3.org/2000/svg" p-id="4613" xmlns:xlink="http://www.w3.org/1999/xlink" width="200" height="200"><path d="M1024.16 512c0 282.72-229.28 512-512 512S0.16 794.72 0.16 512 229.44 0 512.16 0s512 229.28 512 512" fill="#5A89FF" p-id="4614"></path><path d="M461.76 559.04h242.72v48.64H461.76z" fill="#FFFFFF" p-id="4615"></path><path d="M555.04 712l-111.36-111.36c-4.64-4.64-7.2-10.72-7.2-17.28s2.56-12.64 7.2-17.28l111.36-111.36 34.4 34.4-94.24 94.24 94.24 94.24-34.4 34.4z" fill="#FFFFFF" p-id="4616"></path><path d="M796.32 820.32H351.2c-13.44 0-24.32-10.88-24.32-24.32V350.72c0-13.44 10.88-24.32 24.32-24.32h445.12c13.44 0 24.32 10.88 24.32 24.32v445.12c0 13.6-10.88 24.48-24.32 24.48z m-420.8-48.8h396.48V375.04H375.52v396.48z" fill="#FFFFFF" p-id="4617"></path><path d="M252.32 618.08h-48.64V228c0-13.44 10.88-24.32 24.32-24.32h389.92v48.64H252.32v365.76z" fill="#FFFFFF" p-id="4618"></path></svg>