<?xml version="1.0" standalone="no"?><!DOCTYPE svg PUBLIC "-//W3C//DTD SVG 1.1//EN" "http://www.w3.org/Graphics/SVG/1.1/DTD/svg11.dtd"><svg t="1680230598214" class="icon" viewBox="0 0 1024 1024" version="1.1" xmlns="http://www.w3.org/2000/svg" p-id="4483" xmlns:xlink="http://www.w3.org/1999/xlink" width="200" height="200"><path d="M343.881507 856.508689a167.491311 167.491311 0 1 1-167.491311-167.49131 167.491311 167.491311 0 0 1 167.491311 167.49131z" fill="#F8C44F" p-id="4484"></path><path d="M233.023196 837.456553A56.737681 56.737681 0 1 1 176.390196 781.032918 56.737681 56.737681 0 0 1 233.023196 837.456553z" fill="#FFFFFF" p-id="4485"></path><path d="M176.390196 915.23533A77.569413 77.569413 0 1 1 253.959609 837.456553 77.674095 77.674095 0 0 1 176.390196 915.23533z m0-113.265999A35.696586 35.696586 0 1 0 212.086782 837.456553 35.696586 35.696586 0 0 0 176.390196 801.969331z" fill="#282D33" p-id="4486"></path><path d="M218.786434 900.265794h-85.00184a56.737681 56.737681 0 0 0-56.632999 56.737682v4.606011a144.251891 144.251891 0 0 0 198.267839 0v-4.606011A56.737681 56.737681 0 0 0 218.786434 900.265794z" fill="#FFFFFF" p-id="4487"></path><path d="M176.390196 1022.325087a164.978941 164.978941 0 0 1-113.580045-45.222654l-6.59497-6.176242v-13.608669A77.674095 77.674095 0 0 1 133.784594 879.32938h85.00184a77.674095 77.674095 0 0 1 77.569413 77.674096v13.608669l-6.490288 6.176242A165.397669 165.397669 0 0 1 176.390196 1022.325087zM98.402055 952.606829a123.315477 123.315477 0 0 0 155.871601 0 35.801268 35.801268 0 0 0-35.487222-31.404621h-85.00184a35.696586 35.696586 0 0 0-35.382539 31.404621z" fill="#282D33" p-id="4488"></path><path d="M610.716101 20.936414a383.345737 383.345737 0 0 0-300.01881 621.916172l-22.506645 83.745656 83.745655-22.401963A383.345737 383.345737 0 1 0 610.716101 20.936414z" fill="#FFFFFF" p-id="4489"></path><path d="M610.716101 808.668984a399.885504 399.885504 0 0 1-243.176447-81.44265l-108.974034 29.206297 29.206298-108.974034a399.780822 399.780822 0 0 1-81.337968-243.176446 404.282151 404.282151 0 1 1 404.282151 404.386833zM376.961041 681.375588l8.269883 6.59497a358.850133 358.850133 0 0 0 225.485177 78.825598 362.514005 362.514005 0 1 0-362.409323-362.514005 358.954815 358.954815 0 0 0 78.720916 225.589859L333.4133 638.560622l-15.806993 59.145369z" fill="#282D33" p-id="4490"></path><path d="M610.716101 714.664486a310.382335 310.382335 0 1 1 310.382335-310.382335 310.696381 310.696381 0 0 1-310.382335 310.382335z" fill="#00aaff" p-id="4491" data-spm-anchor-id="a313x.7781069.0.i55" class="selected"></path><path d="M631.129104 416.320589l-26.484563-32.451442 32.346759-26.170517c10.468207-6.59497 14.236761-12.247802 14.236762-15.283582V314.046207a20.936414 20.936414 0 0 0-20.936414-20.936414h-34.545083a20.936414 20.936414 0 0 0-20.936414 20.936414v13.503987H532.309231V314.046207a62.809241 62.809241 0 0 1 62.809242-62.809241h34.545082a62.809241 62.809241 0 0 1 62.809242 62.809241v28.787569c0 13.189941-5.757514 32.451441-32.556124 49.933347z" fill="#282D33" p-id="4492"></path><path d="M611.972286 464.055612h-41.872828v-28.787569c0-13.189941 5.652832-32.451441 32.451441-49.933347l29.206298-23.867511 26.170517 32.346759-31.404621 26.170517c-10.468207 6.699652-14.132079 12.247802-14.132079 15.283582z" fill="#282D33" p-id="4493"></path><path d="M591.035872 496.193008z" fill="#FFFFFF" p-id="4494"></path><path d="M570.099458 496.193008h41.872828v40.930689h-41.872828z" fill="#282D33" p-id="4495"></path></svg>