<?xml version="1.0" standalone="no"?><!DOCTYPE svg PUBLIC "-//W3C//DTD SVG 1.1//EN" "http://www.w3.org/Graphics/SVG/1.1/DTD/svg11.dtd"><svg t="1679479932713" class="icon" viewBox="0 0 1024 1024" version="1.1" xmlns="http://www.w3.org/2000/svg" p-id="1994" xmlns:xlink="http://www.w3.org/1999/xlink" width="200" height="200"><path d="M860.8 151.466667H440.533333v163.2c0 6.4-3.2 11.733333-8.533333 13.866666-3.2 1.066667-5.333333 2.133333-7.466667 2.133334-3.2 0-6.4-1.066667-9.6-3.2l-55.466666-40.533334-55.466667 40.533334c-3.2 2.133333-6.4 3.2-9.6 3.2-2.133333 0-5.333333-1.066667-7.466667-2.133334-5.333333-3.2-8.533333-8.533333-8.533333-13.866666V151.466667h-58.666667c-29.866667 0-53.333333 24.533333-53.333333 53.333333v622.933333c14.933333-20.266667 39.466667-34.133333 66.133333-34.133333h614.4c8.533333 0 16 7.466667 16 16s-7.466667 16-16 16H233.6c-27.733333 0-50.133333 22.4-50.133333 50.133333 0 8.533333-6.4 14.933333-13.866667 16 6.4 22.4 26.666667 39.466667 51.2 39.466667h641.066667c29.866667 0 53.333333-24.533333 53.333333-53.333333V204.8c-1.066667-28.8-24.533333-53.333333-54.4-53.333333zM98.133333 97.066667c1.066667 1.066667 2.133333 1.066667 4.266667 1.066666l1.066667-1.066666c1.066667-1.066667 1.066667-2.133333 0-3.2l-10.666667-14.933334 14.933333-10.666666c1.066667-1.066667 1.066667-2.133333 1.066667-4.266667l-1.066667-1.066667c-1.066667-1.066667-2.133333-1.066667-4.266666-1.066666l-14.933334 10.666666-10.666666-14.933333c0-1.066667-1.066667-2.133333-3.2-1.066667l-1.066667 1.066667c-1.066667 1.066667-1.066667 2.133333 0 3.2l10.666667 14.933333-14.933334 10.666667c-2.133333 1.066667-2.133333 3.2-1.066666 4.266667l1.066666 1.066666c1.066667 1.066667 2.133333 1.066667 4.266667 1.066667l14.933333-10.666667 9.6 14.933334zM112 965.333333l-9.6-2.133333 2.133333-9.6c0-1.066667 0-2.133333-1.066666-2.133333s-2.133333 0-2.133334 1.066666l-2.133333 9.6-10.666667-2.133333c-1.066667 0-2.133333 0-2.133333 1.066667s0 2.133333 1.066667 2.133333l9.6 2.133333-2.133334 9.6c0 1.066667 0 2.133333 1.066667 2.133334s2.133333 0 2.133333-1.066667l2.133334-9.6 9.6 2.133333c1.066667 0 2.133333 0 2.133333-1.066666 1.066667 0 1.066667-1.066667 0-2.133334zM940.8 74.666667l-13.866667-4.266667 4.266667-13.866667c0-1.066667 0-3.2-2.133333-3.2-1.066667 0-3.2 0-3.2 2.133334l-4.266667 13.866666-13.866667-4.266666c-1.066667 0-3.2 0-3.2 2.133333 0 1.066667 0 3.2 2.133334 3.2l13.866666 4.266667-4.266666 13.866666c0 1.066667 0 3.2 2.133333 3.2 1.066667 0 3.2 0 3.2-2.133333l4.266667-13.866667 12.8 4.266667c1.066667 0 3.2 0 3.2-2.133333 1.066667-1.066667 0-2.133333-1.066667-3.2z" fill="#8a8a8a" p-id="1995"></path><path d="M164.266667 58.666667m-11.733334 0a11.733333 11.733333 0 1 0 23.466667 0 11.733333 11.733333 0 1 0-23.466667 0Z" fill="#8a8a8a" p-id="1996"></path><path d="M139.733333 955.733333m-7.466666 0a7.466667 7.466667 0 1 0 14.933333 0 7.466667 7.466667 0 1 0-14.933333 0Z" fill="#8a8a8a" p-id="1997"></path><path d="M957.866667 108.8m-8.533334 0a8.533333 8.533333 0 1 0 17.066667 0 8.533333 8.533333 0 1 0-17.066667 0Z" fill="#8a8a8a" p-id="1998"></path><path d="M858.666667 70.4m-6.4 0a6.4 6.4 0 1 0 12.8 0 6.4 6.4 0 1 0-12.8 0Z" fill="#8a8a8a" p-id="1999"></path><path d="M826.666667 384c-8.533333 0-16-7.466667-16-16V232.533333c0-22.4-18.133333-39.466667-39.466667-39.466666-8.533333 0-16-7.466667-16-16s7.466667-16 16-16c39.466667 0 71.466667 32 71.466667 71.466666v135.466667c0 9.6-7.466667 16-16 16z" fill="#8a8a8a" p-id="2000"></path><path d="M832 105.6H192c-38.4 0-69.333333 30.933333-69.333333 69.333333v673.066667c0 38.4 30.933333 69.333333 69.333333 69.333333h640c38.4 0 69.333333-30.933333 69.333333-69.333333V174.933333c0-38.4-30.933333-69.333333-69.333333-69.333333z m-549.333333 32h97.066666v115.2L340.266667 224h-1.066667l-1.066667-1.066667s-1.066667 0-1.066666-1.066666h-1.066667-1.066667H331.733333 328.533333h-1.066666c-1.066667 0-1.066667 0-2.133334 1.066666 0 0-1.066667 0-1.066666 1.066667-1.066667 0-1.066667 1.066667-2.133334 1.066667l-39.466666 28.8V137.6z m586.666666 711.466667c0 20.266667-17.066667 37.333333-37.333333 37.333333H192c-20.266667 0-37.333333-17.066667-37.333333-37.333333v-2.133334c0-27.733333 22.4-50.133333 50.133333-50.133333h614.4c8.533333 0 16-7.466667 16-16s-7.466667-16-16-16H204.8c-19.2 0-36.266667 6.4-50.133333 17.066667V174.933333c0-20.266667 17.066667-37.333333 37.333333-37.333333h58.666667v147.2c0 6.4 3.2 11.733333 8.533333 13.866667 2.133333 1.066667 4.266667 2.133333 7.466667 2.133333 3.2 0 6.4-1.066667 9.6-3.2l55.466666-40.533333 55.466667 40.533333c3.2 2.133333 6.4 3.2 9.6 3.2 2.133333 0 5.333333-1.066667 7.466667-2.133333 5.333333-3.2 8.533333-8.533333 8.533333-13.866667V137.6H832c20.266667 0 37.333333 17.066667 37.333333 37.333333v674.133334z" fill="#8a8a8a" p-id="2001"></path></svg>