<?xml version="1.0" standalone="no"?><!DOCTYPE svg PUBLIC "-//W3C//DTD SVG 1.1//EN" "http://www.w3.org/Graphics/SVG/1.1/DTD/svg11.dtd"><svg t="1679479888152" class="icon" viewBox="0 0 1024 1024" version="1.1" xmlns="http://www.w3.org/2000/svg" p-id="1670" xmlns:xlink="http://www.w3.org/1999/xlink" width="200" height="200"><path d="M677.333333 530.133333c-1.066667 0-1.066667 1.066667-2.133333 1.066667 56.533333-39.466667 93.866667-104.533333 93.866667-179.2 0-120.533333-98.133333-218.666667-218.666667-218.666667S331.733333 231.466667 331.733333 352c0 74.666667 37.333333 139.733333 93.866667 179.2-1.066667 0-1.066667-1.066667-2.133333-1.066667-113.066667 49.066667-192 161.066667-192 291.2 0 176 635.733333 176 635.733333 0 2.133333-130.133333-76.8-242.133333-189.866667-291.2z" fill="#71BCFF" p-id="1671"></path><path d="M670.933333 336c-8.533333 0-16-7.466667-16-16 0-30.933333-9.6-59.733333-27.733333-84.266667-5.333333-7.466667-4.266667-17.066667 3.2-22.4s17.066667-4.266667 22.4 3.2c22.4 29.866667 34.133333 66.133333 34.133333 103.466667 0 9.6-7.466667 16-16 16z" fill="#FFFFFF" p-id="1672"></path><path d="M667.733333 494.933333c48-42.666667 77.866667-105.6 77.866667-174.933333 0-129.066667-104.533333-234.666667-234.666667-234.666667s-234.666667 104.533333-234.666666 234.666667c0 69.333333 29.866667 131.2 77.866666 174.933333-108.8 57.6-178.133333 170.666667-178.133333 295.466667 0 33.066667 19.2 80 109.866667 114.133333 59.733333 21.333333 138.666667 34.133333 224 34.133334 166.4 0 333.866667-45.866667 333.866666-147.2 2.133333-125.866667-67.2-238.933333-176-296.533334zM309.333333 320c0-112 90.666667-202.666667 202.666667-202.666667s202.666667 90.666667 202.666667 202.666667c0 69.333333-35.2 130.133333-87.466667 166.4-1.066667 1.066667-3.2 2.133333-4.266667 3.2-3.2 2.133333-7.466667 4.266667-11.733333 6.4-1.066667 1.066667-3.2 2.133333-4.266667 2.133333l-12.8 6.4c-1.066667 0-2.133333 1.066667-3.2 1.066667-5.333333 2.133333-11.733333 4.266667-17.066666 6.4h-1.066667c-5.333333 2.133333-10.666667 3.2-16 4.266667-2.133333 0-3.2 1.066667-5.333333 1.066666-4.266667 1.066667-8.533333 1.066667-13.866667 2.133334-2.133333 0-3.2 0-5.333333 1.066666-7.466667 2.133333-13.866667 2.133333-20.266667 2.133334s-12.8 0-19.2-1.066667c-2.133333 0-3.2 0-5.333333-1.066667-4.266667-1.066667-9.6-1.066667-13.866667-2.133333-2.133333 0-3.2-1.066667-5.333333-1.066667-5.333333-1.066667-10.666667-2.133333-16-4.266666h-1.066667c-6.4-2.133333-11.733333-4.266667-17.066667-6.4-1.066667 0-2.133333-1.066667-3.2-1.066667l-12.8-6.4c-1.066667-1.066667-3.2-2.133333-4.266666-2.133333-4.266667-2.133333-7.466667-4.266667-11.733334-6.4-1.066667-1.066667-3.2-2.133333-4.266666-3.2-53.333333-37.333333-88.533333-98.133333-88.533334-167.466667z m202.666667 585.6c-146.133333 0-301.866667-40.533333-301.866667-115.2 0-117.333333 68.266667-224 173.866667-273.066667 1.066667 1.066667 2.133333 1.066667 3.2 2.133334 3.2 2.133333 6.4 3.2 8.533333 5.333333 1.066667 1.066667 3.2 2.133333 4.266667 2.133333 4.266667 2.133333 7.466667 4.266667 11.733333 6.4 2.133333 1.066667 3.2 1.066667 5.333334 2.133334 3.2 1.066667 5.333333 2.133333 8.533333 3.2 2.133333 1.066667 3.2 1.066667 5.333333 2.133333 4.266667 1.066667 8.533333 3.2 12.8 4.266667 2.133333 0 3.2 1.066667 5.333334 1.066666 3.2 1.066667 6.4 2.133333 9.6 2.133334 2.133333 0 3.2 1.066667 5.333333 1.066666 4.266667 1.066667 9.6 2.133333 13.866667 2.133334h3.2c4.266667 0 7.466667 1.066667 11.733333 1.066666h4.266667c4.266667 2.133333 9.6 2.133333 14.933333 2.133334s10.666667 0 14.933333-1.066667h4.266667c4.266667 0 7.466667-1.066667 11.733333-1.066667h3.2c4.266667-1.066667 9.6-1.066667 13.866667-2.133333 2.133333 0 3.2-1.066667 5.333333-1.066667 3.2-1.066667 6.4-2.133333 9.6-2.133333 2.133333 0 3.2-1.066667 5.333334-1.066667 4.266667-1.066667 8.533333-3.2 12.8-4.266666 2.133333-1.066667 3.2-1.066667 5.333333-2.133334 3.2-1.066667 6.4-2.133333 8.533333-3.2 2.133333-1.066667 3.2-1.066667 5.333334-2.133333 4.266667-2.133333 8.533333-4.266667 11.733333-6.4 1.066667-1.066667 3.2-1.066667 4.266667-2.133333 3.2-2.133333 6.4-3.2 8.533333-5.333334 1.066667-1.066667 2.133333-1.066667 3.2-2.133333 105.6 49.066667 173.866667 155.733333 173.866667 273.066667 0 73.6-155.733333 114.133333-301.866667 114.133333z" fill="#3A3A3A" p-id="1673"></path><path d="M173.866667 247.466667m-24.533334 0a24.533333 24.533333 0 1 0 49.066667 0 24.533333 24.533333 0 1 0-49.066667 0Z" fill="#71BCFF" p-id="1674"></path><path d="M893.866667 316.8m-18.133334 0a18.133333 18.133333 0 1 0 36.266667 0 18.133333 18.133333 0 1 0-36.266667 0Z" fill="#71BCFF" p-id="1675"></path><path d="M867.2 555.733333m-9.6 0a9.6 9.6 0 1 0 19.2 0 9.6 9.6 0 1 0-19.2 0Z" fill="#71BCFF" p-id="1676"></path><path d="M212.266667 316.8m-5.333334 0a5.333333 5.333333 0 1 0 10.666667 0 5.333333 5.333333 0 1 0-10.666667 0Z" fill="#71BCFF" p-id="1677"></path><path d="M262.4 126.933333c-2.133333-2.133333-4.266667-2.133333-6.4 0l-16 17.066667-16-17.066667c-2.133333-2.133333-4.266667-2.133333-6.4 0-2.133333 2.133333-2.133333 4.266667 0 6.4l16 17.066667-16 17.066667c-2.133333 2.133333-2.133333 4.266667 0 6.4 2.133333 2.133333 4.266667 2.133333 6.4 0l16-17.066667 16 17.066667c2.133333 2.133333 4.266667 2.133333 6.4 0 2.133333-2.133333 2.133333-4.266667 0-6.4L246.4 149.333333l16-17.066666c2.133333-1.066667 2.133333-4.266667 0-5.333334zM858.666667 237.866667l-11.733334-3.2 2.133334-11.733334c0-1.066667 0-2.133333-2.133334-3.2-1.066667 0-2.133333 0-3.2 2.133334l-1.066666 11.733333-11.733334-3.2c-1.066667 0-2.133333 0-3.2 2.133333 0 1.066667 0 2.133333 2.133334 3.2l11.733333 3.2-2.133333 11.733334c0 1.066667 0 2.133333 2.133333 3.2s2.133333 0 3.2-2.133334l2.133333-11.733333 11.733334 3.2c1.066667 0 2.133333 0 3.2-2.133333s-2.133333-3.2-3.2-3.2zM919.466667 629.333333l-13.866667 4.266667-4.266667-14.933333c0-1.066667-2.133333-2.133333-3.2-2.133334-1.066667 0-2.133333 2.133333-2.133333 3.2l4.266667 13.866667-13.866667 4.266667c-1.066667 0-2.133333 2.133333-2.133333 3.2 0 1.066667 2.133333 2.133333 3.2 2.133333l13.866666-4.266667 4.266667 13.866667c0 1.066667 2.133333 2.133333 3.2 2.133333 1.066667 0 2.133333-2.133333 2.133333-3.2l-4.266666-12.8 13.866666-4.266666c1.066667 0 2.133333-2.133333 2.133334-3.2 0-2.133333-1.066667-3.2-3.2-2.133334z" fill="#71BCFF" p-id="1678"></path></svg>